<svg version="1.1" id="Layer_1" xmlns="http://www.w3.org/2000/svg" xmlns:xlink="http://www.w3.org/1999/xlink" x="0px" y="0px"
	 width="100%" viewBox="0 0 1254 1254" enable-background="new 0 0 1254 1254" xml:space="preserve">
<path fill="#FDFDFD" opacity="1.000000" stroke="none" 
	d="
M1062.000000,0.999997 
	C1126.259033,1.000000 1190.517944,1.000000 1255.000000,1.000000 
	C1255.000000,62.687382 1255.000000,124.375031 1254.639404,186.467194 
	C1253.634033,185.776489 1252.774292,184.753860 1252.375977,183.575272 
	C1244.800537,161.165146 1237.823364,138.568893 1225.625366,117.979744 
	C1217.159058,103.689240 1207.449585,90.324188 1196.324585,78.168777 
	C1188.130371,69.215591 1178.200806,61.865746 1169.193359,53.638409 
	C1154.319458,40.052673 1137.077759,30.269566 1118.900757,21.969872 
	C1102.321777,14.399879 1085.645386,7.144678 1067.299683,4.757509 
	C1065.402344,4.510612 1063.760376,2.299638 1062.000000,0.999997 
z"/>
<path fill="#FDFDFD" opacity="1.000000" stroke="none" 
	d="
M0.999999,188.000000 
	C1.000000,125.738678 1.000000,63.477356 1.000000,1.000000 
	C64.687401,1.000000 128.375046,1.000000 192.467987,1.365341 
	C191.327209,2.492627 189.844955,3.445624 188.225143,3.986940 
	C172.245148,9.327191 155.938217,13.846372 140.348679,20.144640 
	C129.226669,24.638002 118.863525,31.170504 108.532600,37.407360 
	C101.045799,41.927208 93.782791,47.000309 87.114632,52.647003 
	C78.934624,59.573944 71.180870,67.072624 63.789238,74.843849 
	C55.624138,83.428253 46.997959,91.888535 40.527382,101.692963 
	C31.885786,114.787003 24.284979,128.742722 17.817017,143.042938 
	C12.328869,155.176834 9.154093,168.349411 4.782881,181.002701 
	C3.928588,183.475616 2.281451,185.674652 0.999999,188.000000 
z"/>
<path fill="#F0F0F0" opacity="1.000000" stroke="none" 
	d="
M0.999999,380.000000 
	C1.000000,331.640839 1.000000,283.281677 1.384580,234.377747 
	C2.150969,233.337280 2.806947,232.875717 2.873655,232.340714 
	C3.957100,223.651382 5.310685,214.976532 5.913095,206.250778 
	C6.890022,192.100235 10.136609,178.424133 14.607773,165.113251 
	C21.982943,143.156998 32.931240,122.908913 46.093929,103.875801 
	C50.705791,97.207108 55.149715,90.347267 60.430225,84.230743 
	C73.717133,68.840263 90.169807,56.969971 106.161774,44.647858 
	C108.227600,43.056103 111.363258,42.852791 113.849098,42.307571 
	C94.524498,55.831669 77.310989,71.136566 62.304672,89.051254 
	C43.381809,111.641541 30.163149,137.186325 20.697174,165.034698 
	C20.276354,165.716156 20.148371,166.367691 20.012062,167.388199 
	C19.346176,169.506958 18.688618,171.256760 17.669243,173.067444 
	C11.883284,181.417053 11.304662,191.038147 10.069140,200.405945 
	C8.776789,210.204651 7.653811,220.059708 7.244137,229.922821 
	C7.095526,233.500732 4.717524,237.559158 7.991545,241.369843 
	C7.658906,243.159454 7.330156,244.579971 6.704862,246.294861 
	C6.272033,248.399567 6.020598,250.209717 6.017389,252.020279 
	C5.987319,268.986725 5.879261,285.954315 6.028047,302.919495 
	C6.252709,328.536530 6.836628,354.151306 6.929587,379.768250 
	C6.980507,393.800323 6.253493,407.833557 6.035401,421.868774 
	C5.884029,431.610229 6.000272,441.355896 6.000332,451.099670 
	C6.000402,462.507874 5.981930,473.916229 6.049286,485.324066 
	C6.054563,486.217896 6.669798,487.108093 7.001278,488.333130 
	C7.001065,489.110443 7.001122,489.554596 6.998870,490.427582 
	C6.664511,495.620544 6.177109,500.382324 6.103994,505.150452 
	C6.084452,506.424866 7.330949,507.718719 7.996429,509.377747 
	C7.996588,510.500092 7.996533,511.248322 7.601206,512.088867 
	C6.916749,517.144653 6.599004,522.107056 6.411377,527.074463 
	C6.400453,527.363647 7.443663,527.692688 7.996572,528.463501 
	C7.996856,532.615173 7.996873,536.306335 7.600915,540.089844 
	C6.803174,542.016724 6.038060,543.854553 6.053877,545.685608 
	C6.311060,575.457581 6.667177,605.228699 7.000849,635.333313 
	C7.001005,636.111084 7.001257,636.555542 6.704954,637.294434 
	C6.272202,639.397339 6.020555,641.205566 6.017702,643.014221 
	C5.989747,660.738464 5.997746,678.462646 6.006402,696.186890 
	C6.016520,716.905396 5.949522,737.624573 6.096066,758.342163 
	C6.156573,766.896484 6.685466,775.447510 7.001086,784.375000 
	C7.000941,785.500000 7.001038,786.250000 6.707358,787.289001 
	C6.275564,796.431274 6.051364,805.284180 6.017999,814.137817 
	C5.954312,831.037476 5.970576,847.937622 6.043137,864.837219 
	C6.050532,866.559509 6.667274,868.279114 7.000978,870.375000 
	C7.000985,871.500000 7.001265,872.250000 6.718532,873.256836 
	C6.291993,878.386658 6.030100,883.259460 6.024465,888.132568 
	C5.991883,916.307678 6.003897,944.482849 6.109645,972.657593 
	C6.112587,973.441467 7.339162,974.220764 7.995854,975.401733 
	C7.996639,976.866638 7.996724,977.932129 7.605886,979.086914 
	C6.810328,980.327820 6.067447,981.476501 6.057273,982.631592 
	C6.001420,988.973694 6.087492,995.318359 6.264370,1001.658325 
	C6.277310,1002.122070 7.393221,1002.555115 7.996569,1003.402161 
	C7.996337,1004.867920 7.995878,1005.933960 7.708932,1007.253174 
	C6.948265,1010.088135 5.975427,1012.691589 6.086437,1015.247986 
	C6.560282,1026.160522 7.259510,1037.066406 8.098366,1047.957520 
	C8.307359,1050.671021 9.344229,1053.320923 10.000834,1056.332886 
	C10.002059,1057.109619 10.003032,1057.553589 10.003584,1058.411011 
	C13.723941,1072.672485 16.400137,1086.914795 21.442122,1100.263672 
	C27.151621,1115.379883 34.996555,1129.688477 41.876202,1144.365356 
	C42.898136,1146.545654 43.247982,1149.211792 44.718842,1150.978882 
	C49.182495,1156.341431 53.989670,1161.423706 58.767399,1166.517334 
	C62.429642,1170.421631 66.250000,1174.177856 70.033951,1178.344360 
	C73.045349,1181.792480 76.022827,1184.896240 79.000153,1188.000000 
	C79.000000,1188.000000 79.000305,1188.000000 79.140121,1188.318848 
	C80.852783,1189.758423 82.425621,1190.879272 84.283089,1192.134644 
	C85.710426,1193.181152 86.853142,1194.093018 88.031288,1195.347534 
	C89.377815,1196.793457 90.688919,1197.896729 92.146454,1199.302124 
	C97.114960,1203.989380 101.596848,1208.849487 106.860100,1212.618408 
	C111.590485,1216.005859 117.180450,1218.192017 122.388290,1220.913696 
	C126.261360,1222.937622 130.129608,1224.970825 134.249451,1227.000000 
	C134.498871,1227.000000 134.997726,1227.000000 135.052856,1227.350098 
	C136.419846,1228.633179 137.603500,1229.937622 139.063400,1230.441284 
	C154.158524,1235.648926 168.379395,1242.906982 184.507080,1245.787109 
	C198.132584,1248.220459 211.667389,1250.467651 225.438278,1250.905273 
	C239.054932,1251.338257 252.696274,1251.032104 266.326263,1250.956055 
	C267.885895,1250.947266 269.442169,1250.333374 271.333313,1250.000000 
	C272.111115,1250.000000 272.555542,1250.000000 273.287231,1250.292236 
	C278.049408,1250.057983 282.524353,1249.531372 287.374023,1249.004517 
	C288.498016,1249.004517 289.247345,1249.004639 290.089294,1249.400513 
	C297.380157,1249.854614 304.578461,1249.916138 311.776855,1249.931519 
	C311.851654,1249.931641 311.927734,1249.327148 312.431366,1249.004150 
	C314.572601,1249.003906 316.285675,1249.004395 318.171509,1249.324951 
	C322.779419,1250.096802 327.208221,1250.741211 331.653473,1250.888428 
	C333.081055,1250.935669 334.552124,1249.669922 336.336121,1249.004761 
	C337.112579,1249.004761 337.556305,1249.004761 338.228943,1249.278809 
	C339.707520,1249.930420 340.962830,1250.648926 342.205902,1250.628418 
	C348.373260,1250.526001 354.536926,1250.078613 360.702942,1250.057129 
	C364.293640,1250.044678 367.881348,1250.745239 371.479279,1250.872070 
	C376.202728,1251.038452 380.938019,1251.047974 385.660431,1250.891113 
	C386.461334,1250.864624 387.223267,1249.663330 388.402893,1249.004639 
	C389.868317,1249.004639 390.934082,1249.004761 392.183838,1249.253540 
	C393.245300,1249.336426 394.122772,1249.170654 395.387695,1249.004639 
	C397.516357,1249.336304 399.257629,1249.668213 401.382294,1250.167236 
	C403.725189,1250.556396 405.684387,1250.967773 407.644318,1250.971191 
	C432.542633,1251.014893 457.441589,1251.100464 482.339386,1250.976929 
	C521.096802,1250.784668 559.853149,1250.354370 598.610596,1250.210693 
	C610.725952,1250.165771 622.843872,1250.917847 634.959900,1250.894531 
	C639.308533,1250.886230 643.654846,1249.669922 648.376709,1249.004639 
	C649.500000,1249.004639 650.248840,1249.004761 651.090088,1249.400635 
	C652.677185,1250.197510 654.170776,1250.943115 655.666809,1250.948242 
	C677.890320,1251.023071 700.114197,1251.020020 722.337769,1250.956909 
	C723.892700,1250.952515 725.445923,1250.333252 727.375000,1250.000000 
	C728.500000,1250.000000 729.250000,1250.000000 730.383240,1250.167480 
	C732.060913,1250.556519 733.355286,1250.971069 734.649841,1250.971924 
	C786.467957,1251.004639 838.286072,1251.021851 890.103943,1250.915771 
	C892.070557,1250.911743 894.034729,1249.669922 896.332947,1249.004761 
	C897.109802,1249.004639 897.553772,1249.004761 898.239258,1249.306396 
	C900.870605,1250.071899 903.259521,1250.935791 905.650146,1250.940552 
	C947.045166,1251.023071 988.440857,1251.105225 1029.835083,1250.908569 
	C1037.835449,1250.870605 1045.871582,1249.957520 1053.813965,1248.879517 
	C1059.938599,1248.048218 1065.942505,1246.326050 1072.333496,1245.000000 
	C1073.111328,1245.000000 1073.555664,1245.000000 1074.404175,1244.999268 
	C1084.872437,1241.832031 1095.375854,1239.627441 1104.899780,1235.278320 
	C1119.937134,1228.411621 1134.423828,1220.297729 1148.893311,1212.260864 
	C1152.127319,1210.464722 1154.325073,1206.802856 1157.367798,1203.995850 
	C1160.490356,1201.661133 1163.245117,1199.330566 1166.275391,1196.874146 
	C1167.367065,1196.165527 1168.183472,1195.582764 1169.300537,1194.854492 
	C1170.928711,1193.458008 1172.194946,1192.133057 1173.593628,1190.966919 
	C1191.413452,1176.108521 1206.187988,1158.705811 1217.804565,1138.593018 
	C1219.416992,1135.801514 1221.909790,1133.518433 1224.242310,1131.196777 
	C1220.141479,1138.672485 1215.845093,1145.982666 1211.434570,1153.223389 
	C1202.139282,1168.483765 1190.042358,1181.427124 1176.947510,1193.359985 
	C1167.805542,1201.690796 1158.469971,1210.148315 1148.029175,1216.629639 
	C1134.732544,1224.884033 1120.637695,1232.201416 1106.135498,1238.064331 
	C1092.273804,1243.668213 1077.433960,1246.840210 1063.058472,1251.194458 
	C1059.635498,1252.231323 1056.349121,1253.719360 1053.000000,1255.000000 
	C765.640808,1255.000000 478.281677,1255.000000 190.399017,1254.644409 
	C189.250488,1253.819092 188.690872,1253.105103 187.990311,1252.917358 
	C180.982056,1251.039795 173.680267,1249.933838 166.982422,1247.289917 
	C153.446503,1241.946655 139.787277,1236.611206 127.016159,1229.720703 
	C114.406250,1222.917114 102.177116,1215.016357 90.984375,1206.088135 
	C79.938103,1197.276855 70.051003,1186.904907 60.312000,1176.597290 
	C52.956963,1168.812744 46.368004,1160.250366 39.968609,1151.639893 
	C36.750557,1147.310059 35.062866,1141.872559 32.075527,1137.336060 
	C23.953688,1125.002441 18.754860,1111.306885 14.278356,1097.481323 
	C9.865653,1083.852905 7.240222,1069.649292 3.685217,1055.735229 
	C3.251816,1054.038940 1.917042,1052.572754 1.000000,1051.000000 
	C1.000000,833.640869 1.000000,616.281677 1.396081,398.369873 
	C1.986342,392.057373 2.192376,386.297729 2.316294,380.536377 
	C2.319934,380.367096 1.458231,380.179230 0.999999,380.000000 
z"/>
<path fill="#FDFDFD" opacity="1.000000" stroke="none" 
	d="
M1255.000000,1077.000000 
	C1255.000000,1136.259277 1255.000000,1195.518677 1255.000000,1255.000000 
	C1197.645996,1255.000000 1140.291626,1255.000000 1082.510498,1254.636719 
	C1083.624268,1253.190430 1085.020020,1251.554321 1086.727051,1251.107788 
	C1110.420044,1244.909058 1131.900024,1233.736572 1152.243896,1220.623047 
	C1168.478149,1210.158813 1182.539551,1196.814819 1195.859741,1182.739014 
	C1210.534912,1167.231445 1222.268921,1149.743774 1231.994873,1130.856567 
	C1235.228027,1124.578247 1238.106079,1118.077271 1240.618652,1111.477173 
	C1244.298950,1101.810059 1247.394653,1091.921265 1251.003052,1082.225220 
	C1251.734375,1080.259888 1253.637207,1078.730347 1255.000000,1077.000000 
z"/>
<path fill="#FEFEFE" opacity="1.000000" stroke="none" 
	d="
M160.000000,1255.000000 
	C107.071198,1255.000000 54.142391,1255.000000 1.000000,1255.000000 
	C1.000000,1199.645996 1.000000,1144.291626 1.351460,1088.525146 
	C3.473408,1091.594116 5.457721,1094.984863 6.973549,1098.573486 
	C11.198966,1108.577026 14.967731,1118.780762 19.434040,1128.671997 
	C22.216286,1134.833740 25.471474,1140.896362 29.332537,1146.432861 
	C37.647606,1158.356445 45.917870,1170.397583 55.300175,1181.463257 
	C62.750771,1190.250732 71.479507,1198.067139 80.277428,1205.567993 
	C89.328293,1213.284546 98.554382,1221.124023 108.779297,1227.055664 
	C123.037704,1235.327026 138.343323,1241.781006 153.080399,1249.250366 
	C155.688370,1250.572266 157.708435,1253.053955 160.000000,1255.000000 
z"/>
<path fill="#F3F3F3" opacity="1.000000" stroke="none" 
	d="
M114.003342,42.006317 
	C111.363258,42.852791 108.227600,43.056103 106.161774,44.647858 
	C90.169807,56.969971 73.717133,68.840263 60.430225,84.230743 
	C55.149715,90.347267 50.705791,97.207108 46.093929,103.875801 
	C32.931240,122.908913 21.982943,143.156998 14.607773,165.113251 
	C10.136609,178.424133 6.890022,192.100235 5.913095,206.250778 
	C5.310685,214.976532 3.957100,223.651382 2.873655,232.340714 
	C2.806947,232.875717 2.150969,233.337280 1.384580,233.916504 
	C1.000000,218.979111 1.000000,203.958206 0.999999,188.468658 
	C2.281451,185.674652 3.928588,183.475616 4.782881,181.002701 
	C9.154093,168.349411 12.328869,155.176834 17.817017,143.042938 
	C24.284979,128.742722 31.885786,114.787003 40.527382,101.692963 
	C46.997959,91.888535 55.624138,83.428253 63.789238,74.843849 
	C71.180870,67.072624 78.934624,59.573944 87.114632,52.647003 
	C93.782791,47.000309 101.045799,41.927208 108.532600,37.407360 
	C118.863525,31.170504 129.226669,24.638002 140.348679,20.144640 
	C155.938217,13.846372 172.245148,9.327191 188.225143,3.986940 
	C189.844955,3.445624 191.327209,2.492627 192.936646,1.365341 
	C482.354248,1.000000 771.708496,1.000000 1061.531372,0.999997 
	C1063.760376,2.299638 1065.402344,4.510612 1067.299683,4.757509 
	C1085.645386,7.144678 1102.321777,14.399879 1118.900757,21.969872 
	C1137.077759,30.269566 1154.319458,40.052673 1169.193359,53.638409 
	C1178.200806,61.865746 1188.130371,69.215591 1196.324585,78.168777 
	C1207.449585,90.324188 1217.159058,103.689240 1225.625366,117.979744 
	C1237.823364,138.568893 1244.800537,161.165146 1252.375977,183.575272 
	C1252.774292,184.753860 1253.634033,185.776489 1254.639404,186.935852 
	C1255.000000,197.687561 1255.000000,208.375122 1254.631104,219.459076 
	C1253.508667,217.754578 1252.424561,215.710251 1252.053955,213.543854 
	C1248.980347,195.580322 1245.605225,177.672623 1238.958374,160.629150 
	C1234.562622,149.357880 1230.484253,137.788071 1224.520874,127.347466 
	C1217.161011,114.461929 1208.311035,102.374565 1199.484131,90.399994 
	C1194.291138,83.355118 1188.278809,76.792969 1181.930664,70.754265 
	C1175.350220,64.494705 1168.018555,58.999557 1160.790527,53.463585 
	C1158.967529,52.067261 1156.286621,51.790962 1153.696045,50.852936 
	C1139.446167,40.733509 1124.867188,31.921919 1109.118408,24.978218 
	C1079.201050,11.787575 1047.791260,6.061911 1015.321289,6.050654 
	C759.862122,5.962095 504.402924,5.973337 248.943756,6.085644 
	C236.197098,6.091248 223.427078,7.018571 210.709595,8.036854 
	C185.261658,10.074457 161.393295,17.940664 138.495590,28.853819 
	C130.139984,32.836136 122.156563,37.599358 114.003342,42.006317 
z"/>
<path fill="#F0F0F0" opacity="1.000000" stroke="none" 
	d="
M1154.000000,50.999954 
	C1156.286621,51.790962 1158.967529,52.067261 1160.790527,53.463585 
	C1168.018555,58.999557 1175.350220,64.494705 1181.930664,70.754265 
	C1188.278809,76.792969 1194.291138,83.355118 1199.484131,90.399994 
	C1208.311035,102.374565 1217.161011,114.461929 1224.520874,127.347466 
	C1230.484253,137.788071 1234.562622,149.357880 1238.958374,160.629150 
	C1245.605225,177.672623 1248.980347,195.580322 1252.053955,213.543854 
	C1252.424561,215.710251 1253.508667,217.754578 1254.631104,219.927734 
	C1255.000000,290.020905 1255.000000,360.041779 1254.614014,430.616547 
	C1253.819092,432.332123 1253.073730,433.488678 1253.055908,434.656433 
	C1252.945923,441.821747 1253.000122,448.989655 1253.000000,456.156677 
	C1252.999878,471.147125 1252.938721,486.138184 1253.087646,501.127136 
	C1253.103882,502.757599 1254.333374,504.376007 1255.000000,506.000000 
	C1255.000000,506.444458 1255.000000,506.888885 1254.666138,507.716766 
	C1254.554810,509.066803 1254.777466,510.033386 1255.000000,511.000000 
	C1255.000000,521.020874 1255.000000,531.041809 1254.666016,541.581482 
	C1254.554810,543.066833 1254.777344,544.033447 1255.000000,545.000000 
	C1255.000000,545.444458 1255.000000,545.888916 1254.603760,546.758240 
	C1253.805908,548.183655 1253.059937,549.182373 1253.054565,550.185059 
	C1252.978149,564.333069 1252.957031,578.482056 1253.088623,592.629272 
	C1253.099121,593.758667 1254.334106,594.876648 1255.000000,596.000000 
	C1255.000000,644.687561 1255.000000,693.375122 1254.607788,742.620544 
	C1253.810303,744.668579 1253.095215,746.150574 1253.055664,747.650391 
	C1252.913696,753.037354 1252.999878,758.430237 1253.000000,763.820923 
	C1253.000000,773.432434 1252.916382,783.045532 1253.089478,792.653870 
	C1253.115845,794.113586 1254.333496,795.551819 1255.000000,797.000000 
	C1255.000000,799.370544 1255.000000,801.741150 1254.603882,804.647339 
	C1254.013550,811.276001 1253.808105,817.368774 1253.683472,823.463257 
	C1253.680054,823.633118 1254.541748,823.820679 1255.000000,824.000000 
	C1255.000000,894.687561 1255.000000,965.375183 1254.606323,1036.621094 
	C1253.811890,1038.011475 1253.196167,1038.806030 1253.043457,1039.681152 
	C1251.431641,1048.918457 1250.238281,1058.242798 1248.264771,1067.399902 
	C1243.887451,1087.712036 1236.840698,1107.171875 1228.314819,1126.087402 
	C1227.583252,1127.710205 1225.470947,1128.710571 1224.166504,1129.670776 
	C1224.891846,1128.003418 1225.554810,1126.698242 1225.990601,1125.321289 
	C1227.733765,1119.813477 1229.310059,1114.251587 1231.125732,1108.768555 
	C1234.604126,1098.265625 1238.435425,1087.872681 1241.631226,1077.286621 
	C1242.802490,1073.406372 1242.587402,1069.107788 1243.004639,1064.667480 
	C1243.004639,1063.891602 1243.004761,1063.448242 1243.370605,1062.939453 
	C1245.157959,1057.335083 1246.741943,1051.829590 1247.898438,1046.235962 
	C1248.232422,1044.621338 1247.336792,1042.752319 1247.004395,1040.600586 
	C1247.004272,1039.135620 1247.004517,1038.070312 1247.395508,1036.914551 
	C1248.523926,1032.213989 1249.870605,1027.607544 1249.900024,1022.992615 
	C1250.087646,993.606445 1250.003296,964.218445 1249.894653,934.831421 
	C1249.891113,933.884338 1248.662476,932.941895 1248.010254,931.612976 
	C1248.343872,929.485779 1248.671875,927.742920 1249.260986,925.789612 
	C1249.348022,924.386169 1249.173950,923.193054 1249.000000,921.583374 
	C1249.000000,919.777771 1249.000000,918.388916 1249.225586,916.854492 
	C1249.300781,916.139282 1249.150391,915.569641 1249.000000,914.625000 
	C1249.000000,913.500000 1249.000000,912.750000 1249.259155,911.760132 
	C1249.345581,908.680115 1249.172852,905.840088 1249.000000,902.583374 
	C1249.000000,900.777771 1249.000000,899.388916 1249.296143,897.705322 
	C1249.394897,885.273804 1249.197388,873.136902 1249.000000,860.666687 
	C1249.000000,859.888916 1249.000000,859.444458 1249.274658,858.754272 
	C1249.366333,856.672424 1249.183105,854.836182 1249.000000,852.555847 
	C1249.000000,849.741150 1249.000000,847.370544 1249.225586,844.854492 
	C1249.300781,844.139282 1249.150391,843.569641 1249.000000,842.600037 
	C1249.000000,841.133362 1249.000000,840.066711 1249.293701,838.710083 
	C1249.391602,834.280090 1249.195801,830.140076 1249.000000,825.562500 
	C1249.000000,823.083313 1249.000000,821.041687 1249.000000,818.581665 
	C1248.668335,816.108887 1248.336548,814.054443 1248.012207,811.597168 
	C1248.346313,808.796204 1248.673218,806.398132 1249.262207,803.789307 
	C1249.349487,802.052368 1249.174805,800.526184 1249.000000,798.600037 
	C1249.000000,797.133423 1249.000000,796.066833 1249.000000,794.666870 
	C1249.000000,793.888977 1249.000000,793.444519 1249.000000,792.666687 
	C1249.000000,791.888916 1249.000000,791.444458 1249.000000,790.531372 
	C1249.000000,778.041809 1249.000000,766.020874 1249.000000,753.600037 
	C1249.000000,752.133362 1249.000000,751.066711 1249.000000,749.625000 
	C1249.000000,748.500000 1249.000000,747.750000 1249.000000,746.550049 
	C1249.000000,743.400024 1249.000000,740.700012 1249.271484,737.762085 
	C1249.030273,736.014954 1248.517578,734.505676 1248.004150,732.559448 
	C1248.003906,730.083252 1248.004395,728.044067 1248.358643,725.938965 
	C1248.808350,724.248718 1248.904175,722.624329 1249.000000,720.625000 
	C1249.000000,719.500000 1249.000000,718.750000 1249.279541,717.742554 
	C1249.372681,715.323425 1249.186279,713.161682 1249.000000,710.562500 
	C1249.000000,708.083313 1249.000000,706.041687 1249.264648,703.778320 
	C1249.021240,702.370056 1248.513062,701.183533 1248.004883,699.664551 
	C1248.004761,698.888916 1248.004883,698.445679 1248.302734,697.963135 
	C1248.918579,697.516296 1249.236450,697.108765 1249.554321,696.701233 
	C1249.037842,696.466675 1248.521362,696.232117 1248.036621,695.652588 
	C1248.378906,694.205017 1248.689453,693.102539 1249.000000,691.531738 
	C1249.000000,685.042297 1249.000000,679.021179 1249.000000,672.571533 
	C1249.000000,670.428711 1249.000000,668.714355 1249.270996,666.767761 
	C1249.361450,664.356995 1249.180786,662.178528 1249.000000,659.625000 
	C1249.000000,658.500000 1249.000000,657.750000 1249.000000,656.531372 
	C1249.000000,641.708435 1249.000000,627.354248 1249.000000,612.571533 
	C1249.000000,610.428711 1249.000000,608.714355 1249.284180,606.730713 
	C1249.378906,602.640930 1249.189331,598.820435 1249.000000,594.583374 
	C1249.000000,592.777771 1249.000000,591.388916 1248.998535,589.662109 
	C1248.666260,588.549561 1248.335571,587.774780 1248.004639,586.666687 
	C1248.004639,585.888916 1248.004761,585.444458 1248.300049,584.704712 
	C1248.730225,568.606262 1248.865112,552.803162 1249.000000,536.625000 
	C1249.000000,535.500000 1249.000000,534.750000 1249.000000,533.625000 
	C1249.000000,532.500000 1249.000000,531.750000 1249.000000,530.571533 
	C1249.000000,528.428711 1249.000000,526.714355 1249.291382,524.715698 
	C1249.274292,512.201416 1248.969604,499.971375 1248.630859,487.742188 
	C1248.623901,487.489136 1248.222412,487.246979 1248.004639,486.599792 
	C1248.004639,485.133301 1248.004761,484.066742 1248.300171,482.704803 
	C1248.730347,466.272552 1248.865234,450.135651 1249.000000,433.531250 
	C1249.000000,427.709137 1249.000000,422.354584 1249.260986,416.789612 
	C1249.348022,415.386139 1249.174072,414.193054 1249.000000,412.600006 
	C1249.000000,411.133331 1249.000000,410.066681 1249.225586,408.854431 
	C1249.300659,408.139252 1249.150391,407.569611 1249.000000,406.600006 
	C1249.000000,405.133331 1249.000000,404.066681 1249.225586,402.854431 
	C1249.300781,402.139221 1249.150391,401.569611 1249.000000,400.545898 
	C1249.000000,397.061188 1249.000000,394.030609 1249.225464,390.854431 
	C1249.300659,390.139282 1249.150269,389.569641 1249.000000,388.666687 
	C1249.000000,387.888885 1249.000000,387.444458 1249.293823,386.710083 
	C1249.391846,382.280121 1249.195923,378.140076 1249.000000,373.600006 
	C1249.000000,372.133331 1249.000000,371.066681 1249.268799,369.769836 
	C1249.358276,368.026459 1249.179199,366.513214 1249.000000,364.550049 
	C1249.000000,361.400482 1249.000000,358.700867 1249.000000,355.625916 
	C1249.000000,354.500000 1249.000000,353.749390 1249.000000,352.665649 
	C1249.000000,351.888336 1249.000000,351.444183 1249.296265,350.705292 
	C1249.728394,344.312317 1249.992188,338.213043 1249.945923,332.116150 
	C1249.922974,329.075226 1249.333252,326.038605 1249.000000,322.562500 
	C1249.000000,320.083344 1249.000000,318.041656 1249.283203,315.738892 
	C1249.377441,311.984802 1249.188721,308.491821 1249.000000,304.582275 
	C1249.000000,302.777130 1249.000000,301.388580 1249.296265,299.705322 
	C1249.728394,291.321381 1249.936890,283.232269 1249.949707,275.142822 
	C1249.953003,273.095734 1249.333374,271.047638 1249.000000,268.583344 
	C1249.000000,266.777802 1249.000000,265.388885 1249.272095,263.761841 
	C1249.362793,260.349091 1249.181396,257.174561 1249.000000,253.666672 
	C1249.000000,252.888901 1249.000000,252.444443 1249.296143,251.705505 
	C1249.722046,246.043365 1249.933350,240.675049 1249.891479,235.308746 
	C1249.885376,234.533188 1248.663940,233.767120 1248.004639,232.663986 
	C1248.004639,231.887741 1248.004761,231.444168 1248.229614,230.854523 
	C1248.304565,230.138763 1248.154663,229.569077 1248.004639,228.666260 
	C1248.004639,227.888962 1248.004761,227.444778 1248.272705,226.769653 
	C1248.360229,225.025803 1248.180054,223.512909 1248.000000,221.666779 
	C1248.000000,220.889236 1248.000000,220.444916 1248.005981,219.619080 
	C1247.538452,213.910812 1247.589966,208.472427 1246.485962,203.279739 
	C1243.892334,191.080399 1240.985352,178.932999 1237.686035,166.906982 
	C1236.625732,163.042221 1233.941284,159.623047 1231.852051,155.674438 
	C1231.113037,153.979706 1230.468506,152.630920 1229.938965,151.238358 
	C1223.359253,133.934113 1214.613647,117.769035 1204.030518,102.615967 
	C1190.141724,82.729759 1172.826904,66.121750 1154.000000,50.999954 
z"/>
<path fill="#FDFDFD" opacity="1.000000" stroke="none" 
	d="
M160.468658,1255.000000 
	C157.708435,1253.053955 155.688370,1250.572266 153.080399,1249.250366 
	C138.343323,1241.781006 123.037704,1235.327026 108.779297,1227.055664 
	C98.554382,1221.124023 89.328293,1213.284546 80.277428,1205.567993 
	C71.479507,1198.067139 62.750771,1190.250732 55.300175,1181.463257 
	C45.917870,1170.397583 37.647606,1158.356445 29.332537,1146.432861 
	C25.471474,1140.896362 22.216286,1134.833740 19.434040,1128.671997 
	C14.967731,1118.780762 11.198966,1108.577026 6.973549,1098.573486 
	C5.457721,1094.984863 3.473408,1091.594116 1.351460,1088.056519 
	C1.000000,1075.979126 1.000000,1063.958130 1.000000,1051.468628 
	C1.917042,1052.572754 3.251816,1054.038940 3.685217,1055.735229 
	C7.240222,1069.649292 9.865653,1083.852905 14.278356,1097.481323 
	C18.754860,1111.306885 23.953688,1125.002441 32.075527,1137.336060 
	C35.062866,1141.872559 36.750557,1147.310059 39.968609,1151.639893 
	C46.368004,1160.250366 52.956963,1168.812744 60.312000,1176.597290 
	C70.051003,1186.904907 79.938103,1197.276855 90.984375,1206.088135 
	C102.177116,1215.016357 114.406250,1222.917114 127.016159,1229.720703 
	C139.787277,1236.611206 153.446503,1241.946655 166.982422,1247.289917 
	C173.680267,1249.933838 180.982056,1251.039795 187.990311,1252.917358 
	C188.690872,1253.105103 189.250488,1253.819092 189.937759,1254.644409 
	C180.312439,1255.000000 170.624878,1255.000000 160.468658,1255.000000 
z"/>
<path fill="#F3F3F3" opacity="1.000000" stroke="none" 
	d="
M1224.000000,1130.000000 
	C1225.470947,1128.710571 1227.583252,1127.710205 1228.314819,1126.087402 
	C1236.840698,1107.171875 1243.887451,1087.712036 1248.264771,1067.399902 
	C1250.238281,1058.242798 1251.431641,1048.918457 1253.043457,1039.681152 
	C1253.196167,1038.806030 1253.811890,1038.011475 1254.606323,1037.089844 
	C1255.000000,1050.020874 1255.000000,1063.041870 1255.000000,1076.531372 
	C1253.637207,1078.730347 1251.734375,1080.259888 1251.003052,1082.225220 
	C1247.394653,1091.921265 1244.298950,1101.810059 1240.618652,1111.477173 
	C1238.106079,1118.077271 1235.228027,1124.578247 1231.994873,1130.856567 
	C1222.268921,1149.743774 1210.534912,1167.231445 1195.859741,1182.739014 
	C1182.539551,1196.814819 1168.478149,1210.158813 1152.243896,1220.623047 
	C1131.900024,1233.736572 1110.420044,1244.909058 1086.727051,1251.107788 
	C1085.020020,1251.554321 1083.624268,1253.190430 1082.041992,1254.636719 
	C1072.645752,1255.000000 1063.291504,1255.000000 1053.468628,1255.000000 
	C1056.349121,1253.719360 1059.635498,1252.231323 1063.058472,1251.194458 
	C1077.433960,1246.840210 1092.273804,1243.668213 1106.135498,1238.064331 
	C1120.637695,1232.201416 1134.732544,1224.884033 1148.029175,1216.629639 
	C1158.469971,1210.148315 1167.805542,1201.690796 1176.947510,1193.359985 
	C1190.042358,1181.427124 1202.139282,1168.483765 1211.434570,1153.223389 
	C1215.845093,1145.982666 1220.141479,1138.672485 1224.244019,1130.946777 
	C1223.999023,1130.333374 1223.999512,1130.166626 1224.000000,1130.000000 
z"/>
<path fill="#F3F3F3" opacity="1.000000" stroke="none" 
	d="
M1255.000000,505.531342 
	C1254.333374,504.376007 1253.103882,502.757599 1253.087646,501.127136 
	C1252.938721,486.138184 1252.999878,471.147125 1253.000000,456.156677 
	C1253.000122,448.989655 1252.945923,441.821747 1253.055908,434.656433 
	C1253.073730,433.488678 1253.819092,432.332123 1254.614014,431.085205 
	C1255.000000,455.687561 1255.000000,480.375122 1255.000000,505.531342 
z"/>
<path fill="#F3F3F3" opacity="1.000000" stroke="none" 
	d="
M1255.000000,796.531311 
	C1254.333496,795.551819 1253.115845,794.113586 1253.089478,792.653870 
	C1252.916382,783.045532 1253.000000,773.432434 1253.000000,763.820923 
	C1252.999878,758.430237 1252.913696,753.037354 1253.055664,747.650391 
	C1253.095215,746.150574 1253.810303,744.668579 1254.607788,743.089233 
	C1255.000000,760.687561 1255.000000,778.375122 1255.000000,796.531311 
z"/>
<path fill="#F3F3F3" opacity="1.000000" stroke="none" 
	d="
M1255.000000,595.531372 
	C1254.334106,594.876648 1253.099121,593.758667 1253.088623,592.629272 
	C1252.957031,578.482056 1252.978149,564.333069 1253.054565,550.185059 
	C1253.059937,549.182373 1253.805908,548.183655 1254.603760,547.091553 
	C1255.000000,563.020874 1255.000000,579.041809 1255.000000,595.531372 
z"/>
<path fill="#F3F3F3" opacity="1.000000" stroke="none" 
	d="
M1255.000000,823.531738 
	C1254.541748,823.820679 1253.680054,823.633118 1253.683472,823.463257 
	C1253.808105,817.368774 1254.013550,811.276001 1254.603882,805.091492 
	C1255.000000,811.021179 1255.000000,817.042297 1255.000000,823.531738 
z"/>
<path fill="#F3F3F3" opacity="1.000000" stroke="none" 
	d="
M0.999999,380.467957 
	C1.458231,380.179230 2.319934,380.367096 2.316294,380.536377 
	C2.192376,386.297729 1.986342,392.057373 1.396081,397.908630 
	C1.000000,392.311951 1.000000,386.623932 0.999999,380.467957 
z"/>
<path fill="#F3F3F3" opacity="1.000000" stroke="none" 
	d="
M1255.000000,510.625000 
	C1254.777466,510.033386 1254.554810,509.066803 1254.666138,508.050110 
	C1255.000000,508.750000 1255.000000,509.500000 1255.000000,510.625000 
z"/>
<path fill="#F3F3F3" opacity="1.000000" stroke="none" 
	d="
M1255.000000,544.625000 
	C1254.777344,544.033447 1254.554810,543.066833 1254.666016,542.050171 
	C1255.000000,542.750000 1255.000000,543.500000 1255.000000,544.625000 
z"/>
<path fill="#FEFEFE" opacity="1.000000" stroke="none" 
	d="
M1153.696045,50.852940 
	C1172.826904,66.121750 1190.141724,82.729759 1204.030518,102.615967 
	C1214.613647,117.769035 1223.359253,133.934113 1229.938965,151.238358 
	C1230.468506,152.630920 1231.113037,153.979706 1231.893555,156.051437 
	C1234.441895,165.484100 1237.020752,174.162476 1239.090088,182.960693 
	C1240.721802,189.898483 1241.726440,196.983765 1243.006592,204.402557 
	C1243.008911,205.865479 1243.014526,206.929413 1243.012939,208.369904 
	C1243.012085,209.499969 1243.018188,210.253464 1243.027466,211.429565 
	C1243.680542,222.096924 1244.866699,232.340302 1244.893311,242.586670 
	C1245.065063,308.726074 1244.983765,374.866150 1244.983154,441.433411 
	C1244.982544,443.571655 1244.983887,445.282501 1244.983154,447.462402 
	C1244.982422,504.956360 1244.983887,561.981262 1244.983154,619.379761 
	C1244.982666,620.500488 1244.984253,621.247620 1244.984619,622.463745 
	C1244.983643,703.929993 1245.099731,784.927551 1244.942383,865.924500 
	C1244.843628,916.716675 1244.507446,967.510254 1243.881470,1018.298279 
	C1243.733032,1030.348267 1242.550171,1042.457153 1240.859375,1054.399780 
	C1238.245361,1072.866089 1232.813965,1090.622314 1225.149048,1107.666504 
	C1215.396118,1129.354126 1202.447998,1148.977295 1186.682983,1167.132812 
	C1174.437744,1178.085449 1163.305786,1190.002441 1150.384033,1199.479004 
	C1112.010742,1227.621216 1068.355591,1241.761841 1020.952332,1241.823608 
	C758.652893,1242.165527 496.352753,1242.008789 234.052902,1241.897339 
	C224.801392,1241.893433 215.482681,1241.050171 206.313843,1239.757324 
	C189.212616,1237.346191 172.497177,1233.264893 156.310730,1227.014893 
	C129.462311,1216.648071 105.420692,1201.896240 84.553841,1182.054321 
	C77.952400,1175.776978 71.524704,1169.317139 64.917084,1162.729858 
	C64.628487,1162.254761 64.379173,1162.075684 64.020302,1161.664551 
	C63.315010,1160.563232 62.658184,1159.779175 61.888771,1158.729614 
	C61.204590,1157.970703 60.632992,1157.477417 60.014366,1156.666504 
	C59.312813,1155.562744 58.658291,1154.776489 58.001732,1153.995117 
	C57.999695,1154.000000 58.008957,1153.995117 57.872131,1153.683838 
	C54.161564,1148.565063 50.587822,1143.757568 46.976479,1138.596436 
	C46.242310,1136.928955 45.622738,1135.566895 44.837509,1134.308350 
	C34.759811,1118.155762 27.331228,1100.828979 21.346380,1082.783569 
	C14.612990,1062.481201 11.190342,1041.577148 11.136157,1020.348633 
	C10.854244,909.901855 10.989599,799.454041 10.988174,688.629822 
	C10.991196,687.499939 10.985723,686.746765 10.986864,685.566223 
	C10.988939,683.428040 10.984400,681.717224 10.987269,679.588867 
	C10.989208,677.778381 10.983739,676.385559 10.984438,674.524536 
	C10.986638,581.373291 10.982669,488.690216 10.987225,395.630310 
	C10.989918,394.499878 10.984085,393.746307 10.985378,392.524902 
	C10.988978,339.040070 10.985453,286.023041 10.990339,232.542725 
	C11.956986,220.634949 12.658102,209.161133 13.959317,197.755783 
	C14.905862,189.459183 16.645191,181.253021 18.031059,173.006546 
	C18.688618,171.256760 19.346176,169.506958 20.252773,167.215424 
	C20.664543,166.117371 20.827276,165.561081 20.990011,165.004791 
	C30.163149,137.186325 43.381809,111.641541 62.304672,89.051254 
	C77.310989,71.136566 94.524498,55.831669 113.849098,42.307564 
	C122.156563,37.599358 130.139984,32.836136 138.495590,28.853819 
	C161.393295,17.940664 185.261658,10.074457 210.709595,8.036854 
	C223.427078,7.018571 236.197098,6.091248 248.943756,6.085644 
	C504.402924,5.973337 759.862122,5.962095 1015.321289,6.050654 
	C1047.791260,6.061911 1079.201050,11.787575 1109.118408,24.978218 
	C1124.867188,31.921919 1139.446167,40.733509 1153.696045,50.852940 
M925.885803,210.584076 
	C911.976746,209.364517 898.069580,207.109192 884.158386,207.084671 
	C735.334778,206.822220 586.510437,206.858948 437.686462,206.950851 
	C407.366852,206.969574 376.962219,206.248032 346.749329,208.213058 
	C307.407166,210.771851 275.662689,229.080856 252.161743,260.926819 
	C233.974258,285.572571 226.933365,313.710602 226.947510,343.985626 
	C226.992249,439.813019 226.940796,535.640442 226.955002,631.467834 
	C226.963776,690.630554 226.766403,749.795105 227.174484,808.955261 
	C227.367722,836.969788 235.346878,862.854614 252.783539,885.162537 
	C279.103607,918.835449 314.412445,935.031921 356.611023,935.137817 
	C501.934174,935.502502 647.258728,935.300415 792.582764,935.314148 
	C795.174194,935.314453 797.765686,935.314270 800.840820,935.314270 
	C800.840820,977.171448 800.840820,1018.230103 800.840820,1059.944824 
	C802.794617,1058.933472 804.115784,1058.306030 805.383606,1057.584839 
	C834.472778,1041.037964 863.518494,1024.414673 892.650146,1007.942993 
	C927.970215,987.972229 959.622314,963.698975 983.771057,930.607666 
	C1011.569580,892.514832 1028.700928,850.373474 1028.808594,802.772522 
	C1029.155640,649.449280 1029.009277,496.124695 1028.790527,342.800964 
	C1028.774170,331.384552 1028.073608,319.619110 1025.305298,308.616211 
	C1012.167969,256.401672 978.922791,223.887802 925.885803,210.584076 
z"/>
<path fill="#E8E7E7" opacity="1.000000" stroke="none" 
	d="
M1186.978394,1166.981812 
	C1202.447998,1148.977295 1215.396118,1129.354126 1225.149048,1107.666504 
	C1232.813965,1090.622314 1238.245361,1072.866089 1240.859375,1054.399780 
	C1242.550171,1042.457153 1243.733032,1030.348267 1243.881470,1018.298279 
	C1244.507446,967.510254 1244.843628,916.716675 1244.942383,865.924500 
	C1245.099731,784.927551 1244.983643,703.929993 1245.382446,622.555420 
	C1246.187866,623.841980 1246.921387,625.501221 1246.944946,627.170471 
	C1247.064453,635.656372 1246.905640,644.146912 1247.089844,652.630493 
	C1247.121826,654.100159 1248.333374,655.544128 1249.000000,657.000000 
	C1249.000000,657.750000 1249.000000,658.500000 1248.650635,659.684204 
	C1248.534302,662.412292 1248.767090,664.706116 1249.000000,667.000000 
	C1249.000000,668.714355 1249.000000,670.428711 1248.603760,672.662842 
	C1248.013428,679.275879 1247.808105,685.368835 1247.683472,691.463501 
	C1247.679932,691.633301 1248.541748,691.820801 1249.000000,692.000000 
	C1248.689453,693.102539 1248.378906,694.205017 1248.034912,695.986694 
	C1248.002563,697.111389 1248.003784,697.556946 1248.004883,698.002441 
	C1248.004883,698.445679 1248.004761,698.888916 1248.003174,700.030823 
	C1248.334229,701.819641 1248.667114,702.909851 1249.000000,704.000000 
	C1249.000000,706.041687 1249.000000,708.083313 1248.720459,710.819885 
	C1248.627319,713.676514 1248.813599,715.838257 1249.000000,718.000000 
	C1249.000000,718.750000 1249.000000,719.500000 1248.721436,720.874512 
	C1248.296753,723.001038 1248.150879,724.502930 1248.004883,726.004883 
	C1248.004395,728.044067 1248.003906,730.083252 1248.002197,732.947083 
	C1248.333984,735.181152 1248.666992,736.590576 1249.000000,738.000000 
	C1249.000000,740.700012 1249.000000,743.400024 1248.666016,746.599854 
	C1248.554688,748.066467 1248.777344,749.033264 1249.000000,750.000000 
	C1249.000000,751.066711 1249.000000,752.133362 1248.603760,753.691406 
	C1247.812012,754.850098 1247.076660,755.515015 1247.071899,756.185181 
	C1246.994873,766.833435 1246.960083,777.483154 1247.093262,788.130127 
	C1247.105469,789.094543 1248.335571,790.043701 1249.000000,791.000000 
	C1249.000000,791.444458 1249.000000,791.888916 1248.701538,792.705078 
	C1248.084351,793.484253 1247.765625,793.891663 1247.447021,794.299072 
	C1247.964722,794.532837 1248.482300,794.766479 1249.000000,795.000183 
	C1249.000000,796.066833 1249.000000,797.133423 1248.665405,798.651123 
	C1248.553955,800.734802 1248.776978,802.367371 1249.000000,804.000000 
	C1248.673218,806.398132 1248.346313,808.796204 1247.730103,811.858154 
	C1247.289185,814.842896 1245.448853,817.570374 1249.000000,819.000000 
	C1249.000000,821.041687 1249.000000,823.083313 1248.706299,825.852478 
	C1248.608276,830.719971 1248.804199,834.859985 1249.000000,839.000000 
	C1249.000000,840.066711 1249.000000,841.133362 1248.774536,842.745605 
	C1248.699341,843.860779 1248.849731,844.430359 1249.000000,845.000000 
	C1249.000000,847.370544 1249.000000,849.741150 1248.725342,852.801514 
	C1248.633789,855.327576 1248.816895,857.163757 1249.000000,859.000000 
	C1249.000000,859.444458 1249.000000,859.888916 1248.626709,860.741150 
	C1247.858887,861.801208 1247.108398,862.461731 1247.123291,863.104553 
	C1247.357300,873.183105 1247.653320,883.260681 1248.038330,893.334595 
	C1248.098145,894.899658 1248.666748,896.445312 1249.000000,898.000000 
	C1249.000000,899.388916 1249.000000,900.777771 1248.625000,902.661621 
	C1245.952637,906.320435 1246.577637,909.236450 1249.000000,912.000000 
	C1249.000000,912.750000 1249.000000,913.500000 1248.774536,914.770630 
	C1248.699341,915.860779 1248.849609,916.430420 1249.000000,917.000000 
	C1249.000000,918.388916 1249.000000,919.777771 1248.739136,921.793823 
	C1248.652222,923.614014 1248.826172,924.807007 1249.000000,926.000000 
	C1248.671875,927.742920 1248.343872,929.485779 1248.008301,932.081909 
	C1247.668823,967.625061 1247.336914,1002.315002 1247.004883,1037.004883 
	C1247.004517,1038.070312 1247.004272,1039.135620 1246.715088,1040.875366 
	C1245.285889,1048.701416 1244.145386,1055.853149 1243.004883,1063.004883 
	C1243.004761,1063.448242 1243.004639,1063.891602 1242.723877,1064.905518 
	C1241.146484,1071.266357 1240.411987,1077.255981 1238.443237,1082.807983 
	C1233.413452,1096.991943 1228.673218,1111.382324 1222.201904,1124.917725 
	C1217.258789,1135.257080 1209.949951,1144.485596 1203.505493,1154.082031 
	C1194.605713,1167.334595 1184.293945,1179.352905 1172.006226,1189.645386 
	C1170.538818,1190.874634 1169.979980,1193.188721 1169.000000,1195.000000 
	C1168.183472,1195.582764 1167.367065,1196.165527 1165.927124,1196.909668 
	C1162.535767,1199.380859 1159.767944,1201.690430 1156.625000,1204.000000 
	C1155.500000,1204.000000 1154.750000,1204.000000 1154.038208,1203.654297 
	C1154.668823,1202.545776 1155.179321,1201.697998 1155.867065,1201.033569 
	C1160.489624,1196.567871 1165.146973,1192.137939 1169.800293,1187.703979 
	C1171.003296,1186.557617 1172.062134,1185.121826 1173.478271,1184.360718 
	C1180.099976,1180.802490 1182.977783,1173.956665 1187.547974,1168.609741 
	C1187.735840,1168.390015 1187.185059,1167.538818 1186.978394,1166.981812 
z"/>
<path fill="#E8E7E7" opacity="1.000000" stroke="none" 
	d="
M64.068756,1161.981812 
	C64.379173,1162.075684 64.628487,1162.254761 64.915466,1163.110840 
	C66.005989,1165.758423 66.593254,1168.179932 68.062187,1169.803955 
	C73.360573,1175.661621 78.620865,1181.626099 84.501617,1186.870850 
	C102.484718,1202.908691 121.873047,1217.030640 143.990540,1226.885010 
	C154.233963,1231.448853 164.792725,1235.402954 175.446564,1238.910522 
	C181.817017,1241.007812 188.641113,1241.742554 195.275116,1243.017822 
	C199.158737,1243.764404 203.067322,1244.382935 206.968658,1245.035156 
	C210.976654,1245.705444 214.989563,1246.346313 218.708221,1247.294800 
	C210.434387,1246.832275 202.388672,1246.474854 194.488068,1245.210571 
	C185.712173,1243.806396 176.863113,1242.223022 168.417938,1239.544678 
	C157.091003,1235.952271 146.121002,1231.234497 134.997742,1227.000000 
	C134.997726,1227.000000 134.498871,1227.000000 134.198380,1226.657715 
	C133.191330,1225.671997 132.553268,1224.926147 131.767593,1224.401245 
	C123.688606,1219.003296 115.639359,1213.557495 107.469795,1208.299316 
	C102.412979,1205.044434 97.163177,1202.089478 91.965851,1198.656738 
	C90.619743,1197.210571 89.307808,1196.107666 87.995865,1195.004883 
	C86.853142,1194.093018 85.710426,1193.181152 84.245972,1191.780273 
	C82.282921,1190.194214 80.641617,1189.097168 79.000305,1188.000000 
	C79.000305,1188.000000 79.000000,1188.000000 78.996155,1187.634766 
	C75.994858,1184.179688 72.997414,1181.089844 69.964806,1177.651733 
	C63.358128,1168.830811 56.686096,1160.433472 50.262894,1151.849854 
	C47.564758,1148.244141 45.365208,1144.261597 43.001335,1140.412109 
	C42.400383,1139.433472 42.161335,1138.230225 41.547443,1137.262451 
	C30.908537,1120.493042 23.437813,1102.355103 18.236940,1083.247803 
	C16.894711,1078.316772 16.067881,1073.235107 14.541841,1068.367554 
	C13.419733,1064.788452 11.543941,1061.445557 10.004012,1057.997437 
	C10.003032,1057.553589 10.002059,1057.109619 10.287441,1056.061768 
	C10.713988,1054.651123 11.014513,1053.835693 10.970244,1053.039307 
	C10.338890,1041.681396 9.685983,1030.324585 8.980666,1018.971069 
	C8.732463,1014.975769 8.328341,1010.990051 7.995415,1007.000000 
	C7.995878,1005.933960 7.996337,1004.867920 8.048092,1002.999207 
	C8.392687,999.788513 8.980122,997.373108 8.919304,994.974060 
	C8.784186,989.644165 8.324300,984.322571 7.996809,978.997559 
	C7.996724,977.932129 7.996639,976.866638 8.291195,975.110962 
	C8.390593,968.321045 7.968498,962.218262 8.053719,956.122498 
	C8.178961,947.164062 8.938351,938.210449 8.929526,929.255188 
	C8.918983,918.554260 8.207646,907.855042 8.139841,897.152893 
	C8.098080,890.561401 8.819612,883.967407 8.899562,877.370911 
	C8.917126,875.921814 7.667593,874.457336 7.001555,873.000000 
	C7.001265,872.250000 7.000985,871.500000 7.296960,870.080200 
	C7.981611,860.499329 8.556248,851.591553 8.712584,842.676453 
	C8.921160,830.782410 9.015254,818.877991 8.745514,806.987366 
	C8.594154,800.315186 7.610049,793.661804 7.001134,787.000000 
	C7.001038,786.250000 7.000941,785.500000 7.392174,784.286560 
	C8.069140,780.680847 8.500706,777.542786 8.591655,774.394897 
	C8.657761,772.106934 8.091248,769.803711 8.119638,767.511169 
	C8.307349,752.353699 8.616504,737.197754 8.811675,722.040344 
	C8.943252,711.821960 8.909196,701.601196 9.101209,691.384277 
	C9.116321,690.580200 10.325456,689.798645 10.979673,689.006592 
	C10.989599,799.454041 10.854244,909.901855 11.136157,1020.348633 
	C11.190342,1041.577148 14.612990,1062.481201 21.346380,1082.783569 
	C27.331228,1100.828979 34.759811,1118.155762 44.837509,1134.308350 
	C45.622738,1135.566895 46.242310,1136.928955 46.971519,1139.005005 
	C47.312923,1145.992676 52.674599,1152.924805 58.008957,1153.995117 
	C58.008957,1153.995117 57.999695,1154.000000 58.006157,1154.353271 
	C58.695549,1155.465576 59.378483,1156.224731 60.061409,1156.984009 
	C60.632992,1157.477417 61.204590,1157.970703 61.894333,1159.087524 
	C62.697903,1160.467896 63.383320,1161.224854 64.068756,1161.981812 
z"/>
<path fill="#E8E7E7" opacity="1.000000" stroke="none" 
	d="
M10.978702,396.007141 
	C10.982669,488.690216 10.986638,581.373291 10.597252,674.437744 
	C9.666482,666.127625 9.215502,657.429504 8.552657,648.747498 
	C8.252432,644.815063 7.531556,640.914856 7.001509,637.000000 
	C7.001257,636.555542 7.001005,636.111084 7.381965,635.252136 
	C7.842461,631.572937 7.980650,628.308350 7.990091,625.043396 
	C8.019573,614.847412 8.000563,604.651245 8.000041,594.455139 
	C7.999111,576.302612 7.997953,558.150085 7.996891,539.997559 
	C7.996873,536.306335 7.996856,532.615173 7.998045,527.996338 
	C7.998328,522.044678 7.997403,517.020630 7.996478,511.996582 
	C7.996533,511.248322 7.996588,510.500092 7.997906,508.944366 
	C8.293180,503.014465 8.685498,497.893982 8.789535,492.767700 
	C8.808014,491.857208 7.627846,490.922363 7.001174,489.998779 
	C7.001122,489.554596 7.001065,489.110443 7.317916,488.165619 
	C8.043508,486.812866 8.826418,485.948822 8.799777,485.110565 
	C8.634231,479.901489 7.994768,474.694672 8.057582,469.493713 
	C8.217094,456.286194 8.756409,443.083649 8.965731,429.876282 
	C9.121449,420.050995 8.917006,410.219879 9.088393,400.395111 
	C9.114092,398.921906 10.319191,397.469299 10.978702,396.007141 
z"/>
<path fill="#E8E7E7" opacity="1.000000" stroke="none" 
	d="
M1074.000000,1245.000000 
	C1073.555664,1245.000000 1073.111328,1245.000000 1072.088745,1244.739502 
	C1057.581421,1245.984497 1043.668335,1248.584717 1029.720215,1248.788330 
	C989.445251,1249.376099 949.156067,1249.016846 908.872742,1248.915771 
	C907.579407,1248.912476 906.289246,1247.669800 905.452576,1247.002686 
	C912.494507,1247.000244 919.081848,1247.048706 925.668274,1246.991821 
	C962.282227,1246.675415 998.900879,1246.579468 1035.506592,1245.843262 
	C1045.858887,1245.635254 1056.512695,1244.763916 1066.430176,1242.028564 
	C1084.191650,1237.129517 1102.182983,1232.819824 1118.447266,1223.118408 
	C1129.170898,1216.722046 1141.872314,1213.723022 1151.156006,1204.604370 
	C1151.739136,1204.031616 1153.035522,1204.184692 1153.854248,1204.301025 
	C1149.041138,1208.286011 1144.705444,1212.523071 1139.646973,1215.554443 
	C1121.355713,1226.515625 1101.807983,1234.727295 1081.456421,1241.085571 
	C1078.820557,1241.909180 1076.478271,1243.672119 1074.000000,1245.000000 
z"/>
<path fill="#EBEBEB" opacity="1.000000" stroke="none" 
	d="
M648.002258,1249.004883 
	C643.654846,1249.669922 639.308533,1250.886230 634.959900,1250.894531 
	C622.843872,1250.917847 610.725952,1250.165771 598.610596,1250.210693 
	C559.853149,1250.354370 521.096802,1250.784668 482.339386,1250.976929 
	C457.441589,1251.100464 432.542633,1251.014893 407.644318,1250.971191 
	C405.684387,1250.967773 403.725189,1250.556396 401.447083,1249.812866 
	C401.468323,1248.972168 401.812653,1248.369629 402.147247,1248.375122 
	C412.825165,1248.546875 423.501678,1248.846802 434.179749,1248.908325 
	C435.449890,1248.915771 436.727264,1247.669922 438.375916,1247.003296 
	C439.499969,1247.001099 440.249359,1247.000610 441.062378,1247.353638 
	C442.098145,1248.090698 443.080475,1248.827515 444.040741,1248.799805 
	C449.964569,1248.629028 455.886566,1247.994995 461.803253,1248.059204 
	C474.913330,1248.201904 488.018982,1248.739502 501.129059,1248.906372 
	C502.744781,1248.926880 504.376740,1247.669800 506.375916,1247.003418 
	C507.500000,1247.002808 508.249390,1247.003662 509.067322,1247.364258 
	C512.531128,1248.955811 515.898254,1249.800293 519.333130,1247.003174 
	C520.110352,1247.000977 520.554443,1247.000488 521.077393,1247.376221 
	C521.976135,1248.164062 522.784363,1248.901855 523.617859,1248.931641 
	C527.354248,1249.064697 531.099487,1249.071533 534.838440,1248.986206 
	C547.254028,1248.703125 559.667114,1248.193970 572.083496,1248.106567 
	C578.933167,1248.058350 585.785950,1248.803589 592.641357,1248.900146 
	C594.085815,1248.920532 595.548157,1247.669800 597.334839,1247.004028 
	C598.110779,1247.003662 598.554138,1247.004272 599.090088,1247.400757 
	C599.524353,1248.133301 599.867371,1248.765259 600.207642,1248.763794 
	C610.793579,1248.718018 621.379211,1248.541626 631.964905,1248.540894 
	C637.310669,1248.540527 642.656494,1248.840576 648.002258,1249.004883 
z"/>
<path fill="#EBEBEB" opacity="1.000000" stroke="none" 
	d="
M10.987226,395.630310 
	C10.319191,397.469299 9.114092,398.921906 9.088393,400.395111 
	C8.917006,410.219879 9.121449,420.050995 8.965731,429.876282 
	C8.756409,443.083649 8.217094,456.286194 8.057582,469.493713 
	C7.994768,474.694672 8.634231,479.901489 8.799777,485.110565 
	C8.826418,485.948822 8.043508,486.812866 7.318186,487.832489 
	C6.669798,487.108093 6.054563,486.217896 6.049286,485.324066 
	C5.981930,473.916229 6.000402,462.507874 6.000332,451.099670 
	C6.000272,441.355896 5.884029,431.610229 6.035401,421.868774 
	C6.253493,407.833557 6.980507,393.800323 6.929587,379.768250 
	C6.836628,354.151306 6.252709,328.536530 6.028047,302.919495 
	C5.879261,285.954315 5.987319,268.986725 6.017389,252.020279 
	C6.020598,250.209717 6.272033,248.399567 7.000820,246.589630 
	C7.728938,247.731598 7.981575,248.873062 7.982831,250.014786 
	C8.006469,271.484253 7.871525,292.954681 8.034138,314.422943 
	C8.222731,339.321289 8.638154,364.218201 9.082541,389.113464 
	C9.105816,390.417419 10.319025,391.700134 10.978256,392.992737 
	C10.984085,393.746307 10.989918,394.499878 10.987226,395.630310 
z"/>
<path fill="#E8E7E7" opacity="1.000000" stroke="none" 
	d="
M10.985382,392.524902 
	C10.319025,391.700134 9.105816,390.417419 9.082541,389.113464 
	C8.638154,364.218201 8.222731,339.321289 8.034138,314.422943 
	C7.871525,292.954681 8.006469,271.484253 7.982831,250.014786 
	C7.981575,248.873062 7.728938,247.731598 7.297366,246.295258 
	C7.330156,244.579971 7.658906,243.159454 8.277665,241.099213 
	C9.372426,237.975006 10.177176,235.490509 10.981927,233.006012 
	C10.985453,286.023041 10.988978,339.040070 10.985382,392.524902 
z"/>
<path fill="#EBEBEB" opacity="1.000000" stroke="none" 
	d="
M1169.300537,1194.854492 
	C1169.979980,1193.188721 1170.538818,1190.874634 1172.006226,1189.645386 
	C1184.293945,1179.352905 1194.605713,1167.334595 1203.505493,1154.082031 
	C1209.949951,1144.485596 1217.258789,1135.257080 1222.201904,1124.917725 
	C1228.673218,1111.382324 1233.413452,1096.991943 1238.443237,1082.807983 
	C1240.411987,1077.255981 1241.146484,1071.266357 1242.724121,1065.238037 
	C1242.587402,1069.107788 1242.802490,1073.406372 1241.631226,1077.286621 
	C1238.435425,1087.872681 1234.604126,1098.265625 1231.125732,1108.768555 
	C1229.310059,1114.251587 1227.733765,1119.813477 1225.990601,1125.321289 
	C1225.554810,1126.698242 1224.891846,1128.003418 1224.166504,1129.670776 
	C1223.999512,1130.166626 1223.999023,1130.333374 1223.996826,1130.750000 
	C1221.909790,1133.518433 1219.416992,1135.801514 1217.804565,1138.593018 
	C1206.187988,1158.705811 1191.413452,1176.108521 1173.593628,1190.966919 
	C1172.194946,1192.133057 1170.928711,1193.458008 1169.300537,1194.854492 
z"/>
<path fill="#EBEBEB" opacity="1.000000" stroke="none" 
	d="
M904.997559,1247.004883 
	C906.289246,1247.669800 907.579407,1248.912476 908.872742,1248.915771 
	C949.156067,1249.016846 989.445251,1249.376099 1029.720215,1248.788330 
	C1043.668335,1248.584717 1057.581421,1245.984497 1071.755249,1244.739502 
	C1065.942505,1246.326050 1059.938599,1248.048218 1053.813965,1248.879517 
	C1045.871582,1249.957520 1037.835449,1250.870605 1029.835083,1250.908569 
	C988.440857,1251.105225 947.045166,1251.023071 905.650146,1250.940552 
	C903.259521,1250.935791 900.870605,1250.071899 898.424744,1249.054199 
	C899.245728,1248.000244 900.122864,1247.500122 901.399780,1247.000000 
	C902.865540,1247.001587 903.931580,1247.003174 904.997559,1247.004883 
z"/>
<path fill="#E8E7E7" opacity="1.000000" stroke="none" 
	d="
M730.000000,1250.000000 
	C729.250000,1250.000000 728.500000,1250.000000 727.240234,1249.718750 
	C725.820312,1248.626709 724.910156,1247.815796 724.285400,1246.711914 
	C726.375732,1246.279419 728.183594,1245.989136 729.985291,1246.023804 
	C745.155945,1246.314453 760.324097,1246.828979 775.495667,1246.955688 
	C795.441467,1247.122192 815.389832,1247.045776 835.336731,1246.961792 
	C839.944824,1246.942383 844.552490,1246.226196 849.157898,1246.252686 
	C860.087463,1246.315430 871.015625,1246.628296 881.944153,1246.848267 
	C883.296570,1246.875488 884.648071,1246.951538 885.908203,1247.400879 
	C884.149658,1248.197998 882.484680,1248.938232 880.815796,1248.947266 
	C864.733032,1249.035156 848.649536,1249.000000 832.566284,1249.000000 
	C802.946289,1249.000000 773.326233,1249.024170 743.706360,1248.962646 
	C740.751282,1248.956421 737.790283,1248.169067 734.845520,1248.248169 
	C733.215881,1248.291748 731.614258,1249.381714 730.000000,1250.000000 
z"/>
<path fill="#EBEBEB" opacity="1.000000" stroke="none" 
	d="
M6.704953,637.294434 
	C7.531556,640.914856 8.252432,644.815063 8.552657,648.747498 
	C9.215502,657.429504 9.666482,666.127625 10.591083,674.905945 
	C10.983739,676.385559 10.989208,677.778381 10.622702,679.662048 
	C8.335812,682.369324 7.913219,684.399414 10.980250,685.993652 
	C10.985723,686.746765 10.991196,687.499939 10.988169,688.629822 
	C10.325456,689.798645 9.116321,690.580200 9.101209,691.384277 
	C8.909196,701.601196 8.943252,711.821960 8.811675,722.040344 
	C8.616504,737.197754 8.307349,752.353699 8.119638,767.511169 
	C8.091248,769.803711 8.657761,772.106934 8.591655,774.394897 
	C8.500706,777.542786 8.069140,780.680847 7.392417,783.911560 
	C6.685466,775.447510 6.156573,766.896484 6.096066,758.342163 
	C5.949522,737.624573 6.016520,716.905396 6.006402,696.186890 
	C5.997746,678.462646 5.989747,660.738464 6.017702,643.014221 
	C6.020555,641.205566 6.272202,639.397339 6.704953,637.294434 
z"/>
<path fill="#EBEBEB" opacity="1.000000" stroke="none" 
	d="
M730.383240,1250.167480 
	C731.614258,1249.381714 733.215881,1248.291748 734.845520,1248.248169 
	C737.790283,1248.169067 740.751282,1248.956421 743.706360,1248.962646 
	C773.326233,1249.024170 802.946289,1249.000000 832.566284,1249.000000 
	C848.649536,1249.000000 864.733032,1249.035156 880.815796,1248.947266 
	C882.484680,1248.938232 884.149658,1248.197998 886.241089,1247.399780 
	C887.109741,1247.003174 887.553650,1247.003784 888.066284,1247.364014 
	C890.051575,1249.462891 891.801880,1250.083496 893.376099,1247.000000 
	C894.499573,1247.001709 895.248596,1247.003296 895.998291,1247.338135 
	C895.999268,1248.115967 895.999634,1248.560425 896.000000,1249.004883 
	C894.034729,1249.669922 892.070557,1250.911743 890.103943,1250.915771 
	C838.286072,1251.021851 786.467957,1251.004639 734.649841,1250.971924 
	C733.355286,1250.971069 732.060913,1250.556519 730.383240,1250.167480 
z"/>
<path fill="#E8E7E7" opacity="1.000000" stroke="none" 
	d="
M438.001251,1247.004883 
	C436.727264,1247.669922 435.449890,1248.915771 434.179749,1248.908325 
	C423.501678,1248.846802 412.825165,1248.546875 402.147247,1248.375122 
	C401.812653,1248.369629 401.468323,1248.972168 401.063721,1249.645630 
	C399.257629,1249.668213 397.516357,1249.336304 395.204529,1248.754150 
	C393.755920,1248.670898 392.877899,1248.837891 391.999847,1249.004883 
	C390.934082,1249.004761 389.868317,1249.004639 387.994324,1248.951172 
	C383.116699,1248.860229 379.046509,1248.863525 374.978149,1248.777222 
	C363.710144,1248.538330 352.443329,1248.233765 341.174561,1248.047974 
	C340.121918,1248.030396 339.058441,1248.670166 338.000000,1249.004883 
	C337.556305,1249.004761 337.112579,1249.004761 335.913147,1248.992798 
	C329.437897,1248.988892 323.718323,1248.996948 317.998779,1249.004883 
	C316.285675,1249.004395 314.572601,1249.003906 312.026367,1248.994141 
	C304.127716,1248.991577 297.062195,1248.998169 289.996674,1249.004883 
	C289.247345,1249.004639 288.498016,1249.004517 287.374146,1248.671143 
	C286.999512,1247.893677 286.999451,1247.449341 287.279663,1246.713867 
	C295.101898,1246.281860 302.643402,1246.062256 310.185883,1246.018066 
	C321.919189,1245.949341 333.653992,1245.909790 345.386719,1246.017456 
	C376.258636,1246.300659 407.129761,1246.669922 438.001251,1247.004883 
z"/>
<path fill="#EBEBEB" opacity="1.000000" stroke="none" 
	d="
M10.003592,1058.411011 
	C11.543941,1061.445557 13.419733,1064.788452 14.541841,1068.367554 
	C16.067881,1073.235107 16.894711,1078.316772 18.236940,1083.247803 
	C23.437813,1102.355103 30.908537,1120.493042 41.547443,1137.262451 
	C42.161335,1138.230225 42.400383,1139.433472 43.001335,1140.412109 
	C45.365208,1144.261597 47.564758,1148.244141 50.262894,1151.849854 
	C56.686096,1160.433472 63.358128,1168.830811 69.964836,1177.651733 
	C66.250000,1174.177856 62.429642,1170.421631 58.767399,1166.517334 
	C53.989670,1161.423706 49.182495,1156.341431 44.718842,1150.978882 
	C43.247982,1149.211792 42.898136,1146.545654 41.876202,1144.365356 
	C34.996555,1129.688477 27.151621,1115.379883 21.442122,1100.263672 
	C16.400137,1086.914795 13.723941,1072.672485 10.003592,1058.411011 
z"/>
<path fill="#EBEBEB" opacity="1.000000" stroke="none" 
	d="
M135.052856,1227.350098 
	C146.121002,1231.234497 157.091003,1235.952271 168.417938,1239.544678 
	C176.863113,1242.223022 185.712173,1243.806396 194.488068,1245.210571 
	C202.388672,1246.474854 210.434387,1246.832275 219.107971,1247.294922 
	C220.865723,1247.001709 221.931641,1247.003296 223.090012,1247.400879 
	C224.013733,1248.194214 224.844254,1248.935913 225.676437,1248.937744 
	C238.771362,1248.967041 251.866730,1248.851929 264.961395,1248.909058 
	C266.975800,1248.917847 268.987183,1249.619019 271.000000,1250.000000 
	C269.442169,1250.333374 267.885895,1250.947266 266.326263,1250.956055 
	C252.696274,1251.032104 239.054932,1251.338257 225.438278,1250.905273 
	C211.667389,1250.467651 198.132584,1248.220459 184.507080,1245.787109 
	C168.379395,1242.906982 154.158524,1235.648926 139.063400,1230.441284 
	C137.603500,1229.937622 136.419846,1228.633179 135.052856,1227.350098 
z"/>
<path fill="#EBEBEB" opacity="1.000000" stroke="none" 
	d="
M6.718543,873.256836 
	C7.667593,874.457336 8.917126,875.921814 8.899562,877.370911 
	C8.819612,883.967407 8.098080,890.561401 8.139841,897.152893 
	C8.207646,907.855042 8.918983,918.554260 8.929526,929.255188 
	C8.938351,938.210449 8.178961,947.164062 8.053719,956.122498 
	C7.968498,962.218262 8.390593,968.321045 8.290496,974.711426 
	C7.339162,974.220764 6.112587,973.441467 6.109645,972.657593 
	C6.003897,944.482849 5.991883,916.307678 6.024465,888.132568 
	C6.030100,883.259460 6.291993,878.386658 6.718543,873.256836 
z"/>
<path fill="#E8E7E7" opacity="1.000000" stroke="none" 
	d="
M648.376709,1249.004639 
	C642.656494,1248.840576 637.310669,1248.540527 631.964905,1248.540894 
	C621.379211,1248.541626 610.793579,1248.718018 600.207642,1248.763794 
	C599.867371,1248.765259 599.524353,1248.133301 599.556702,1247.398560 
	C639.288025,1247.000244 678.645203,1247.000122 717.910400,1247.396240 
	C716.654236,1248.194702 715.491516,1248.942993 714.325867,1248.947510 
	C695.393677,1249.020386 676.461182,1248.998779 657.528748,1248.999390 
	C655.351746,1248.999512 653.174744,1249.003052 650.997742,1249.004883 
	C650.248840,1249.004761 649.500000,1249.004639 648.376709,1249.004639 
z"/>
<path fill="#EBEBEB" opacity="1.000000" stroke="none" 
	d="
M10.990339,232.542725 
	C10.177176,235.490509 9.372426,237.975006 8.281556,240.730133 
	C4.717524,237.559158 7.095526,233.500732 7.244137,229.922821 
	C7.653811,220.059708 8.776789,210.204651 10.069140,200.405945 
	C11.304662,191.038147 11.883284,181.417053 17.669243,173.067444 
	C16.645191,181.253021 14.905862,189.459183 13.959317,197.755783 
	C12.658102,209.161133 11.956986,220.634949 10.990339,232.542725 
z"/>
<path fill="#EBEBEB" opacity="1.000000" stroke="none" 
	d="
M1074.404175,1244.999268 
	C1076.478271,1243.672119 1078.820557,1241.909180 1081.456421,1241.085571 
	C1101.807983,1234.727295 1121.355713,1226.515625 1139.646973,1215.554443 
	C1144.705444,1212.523071 1149.041138,1208.286011 1153.854248,1204.301025 
	C1154.750000,1204.000000 1155.500000,1204.000000 1156.625000,1204.000000 
	C1154.325073,1206.802856 1152.127319,1210.464722 1148.893311,1212.260864 
	C1134.423828,1220.297729 1119.937134,1228.411621 1104.899780,1235.278320 
	C1095.375854,1239.627441 1084.872437,1241.832031 1074.404175,1244.999268 
z"/>
<path fill="#EBEBEB" opacity="1.000000" stroke="none" 
	d="
M7.600915,540.089844 
	C7.997953,558.150085 7.999111,576.302612 8.000041,594.455139 
	C8.000563,604.651245 8.019573,614.847412 7.990091,625.043396 
	C7.980650,628.308350 7.842461,631.572937 7.382062,634.918823 
	C6.667177,605.228699 6.311060,575.457581 6.053877,545.685608 
	C6.038060,543.854553 6.803174,542.016724 7.600915,540.089844 
z"/>
<path fill="#EBEBEB" opacity="1.000000" stroke="none" 
	d="
M6.707356,787.289001 
	C7.610049,793.661804 8.594154,800.315186 8.745514,806.987366 
	C9.015254,818.877991 8.921160,830.782410 8.712584,842.676453 
	C8.556248,851.591553 7.981611,860.499329 7.297234,869.705200 
	C6.667274,868.279114 6.050532,866.559509 6.043137,864.837219 
	C5.970576,847.937622 5.954312,831.037476 6.017999,814.137817 
	C6.051364,805.284180 6.275564,796.431274 6.707356,787.289001 
z"/>
<path fill="#EBEBEB" opacity="1.000000" stroke="none" 
	d="
M651.090088,1249.400635 
	C653.174744,1249.003052 655.351746,1248.999512 657.528748,1248.999390 
	C676.461182,1248.998779 695.393677,1249.020386 714.325867,1248.947510 
	C715.491516,1248.942993 716.654236,1248.194702 718.338501,1247.396240 
	C720.572510,1247.001587 722.286255,1247.003174 724.000000,1247.004883 
	C724.910156,1247.815796 725.820312,1248.626709 726.865234,1249.718750 
	C725.445923,1250.333252 723.892700,1250.952515 722.337769,1250.956909 
	C700.114197,1251.020020 677.890320,1251.023071 655.666809,1250.948242 
	C654.170776,1250.943115 652.677185,1250.197510 651.090088,1249.400635 
z"/>
<path fill="#E8E7E7" opacity="1.000000" stroke="none" 
	d="
M271.333313,1250.000000 
	C268.987183,1249.619019 266.975800,1248.917847 264.961395,1248.909058 
	C251.866730,1248.851929 238.771362,1248.967041 225.676437,1248.937744 
	C224.844254,1248.935913 224.013733,1248.194214 223.538391,1247.398560 
	C243.597015,1247.001953 263.299713,1247.003418 282.915466,1247.391235 
	C279.552338,1248.518433 276.276184,1249.259155 273.000000,1250.000000 
	C272.555542,1250.000000 272.111115,1250.000000 271.333313,1250.000000 
z"/>
<path fill="#EBEBEB" opacity="1.000000" stroke="none" 
	d="
M92.146461,1199.302124 
	C97.163177,1202.089478 102.412979,1205.044434 107.469795,1208.299316 
	C115.639359,1213.557495 123.688606,1219.003296 131.767593,1224.401245 
	C132.553268,1224.926147 133.191330,1225.671997 133.948944,1226.657715 
	C130.129608,1224.970825 126.261360,1222.937622 122.388290,1220.913696 
	C117.180450,1218.192017 111.590485,1216.005859 106.860100,1212.618408 
	C101.596848,1208.849487 97.114960,1203.989380 92.146461,1199.302124 
z"/>
<path fill="#EBEBEB" opacity="1.000000" stroke="none" 
	d="
M338.228943,1249.278809 
	C339.058441,1248.670166 340.121918,1248.030396 341.174561,1248.047974 
	C352.443329,1248.233765 363.710144,1248.538330 374.978149,1248.777222 
	C379.046509,1248.863525 383.116699,1248.860229 387.594635,1248.951416 
	C387.223267,1249.663330 386.461334,1250.864624 385.660431,1250.891113 
	C380.938019,1251.047974 376.202728,1251.038452 371.479279,1250.872070 
	C367.881348,1250.745239 364.293640,1250.044678 360.702942,1250.057129 
	C354.536926,1250.078613 348.373260,1250.526001 342.205902,1250.628418 
	C340.962830,1250.648926 339.707520,1249.930420 338.228943,1249.278809 
z"/>
<path fill="#EBEBEB" opacity="1.000000" stroke="none" 
	d="
M7.708929,1007.253174 
	C8.328341,1010.990051 8.732463,1014.975769 8.980666,1018.971069 
	C9.685983,1030.324585 10.338890,1041.681396 10.970244,1053.039307 
	C11.014513,1053.835693 10.713988,1054.651123 10.287188,1055.728882 
	C9.344229,1053.320923 8.307359,1050.671021 8.098366,1047.957520 
	C7.259510,1037.066406 6.560282,1026.160522 6.086437,1015.247986 
	C5.975427,1012.691589 6.948265,1010.088135 7.708929,1007.253174 
z"/>
<path fill="#EBEBEB" opacity="1.000000" stroke="none" 
	d="
M7.605886,979.086914 
	C8.324300,984.322571 8.784186,989.644165 8.919304,994.974060 
	C8.980122,997.373108 8.392687,999.788513 8.047864,1002.599487 
	C7.393221,1002.555115 6.277310,1002.122070 6.264370,1001.658325 
	C6.087492,995.318359 6.001420,988.973694 6.057273,982.631592 
	C6.067447,981.476501 6.810328,980.327820 7.605886,979.086914 
z"/>
<path fill="#EBEBEB" opacity="1.000000" stroke="none" 
	d="
M318.171509,1249.324951 
	C323.718323,1248.996948 329.437897,1248.988892 335.580383,1248.992920 
	C334.552124,1249.669922 333.081055,1250.935669 331.653473,1250.888428 
	C327.208221,1250.741211 322.779419,1250.096802 318.171509,1249.324951 
z"/>
<path fill="#EBEBEB" opacity="1.000000" stroke="none" 
	d="
M290.089294,1249.400513 
	C297.062195,1248.998169 304.127716,1248.991577 311.598236,1248.994873 
	C311.927734,1249.327148 311.851654,1249.931641 311.776855,1249.931519 
	C304.578461,1249.916138 297.380157,1249.854614 290.089294,1249.400513 
z"/>
<path fill="#EBEBEB" opacity="1.000000" stroke="none" 
	d="
M6.998867,490.427582 
	C7.627846,490.922363 8.808014,491.857208 8.789535,492.767700 
	C8.685498,497.893982 8.293180,503.014465 7.997693,508.570251 
	C7.330949,507.718719 6.084452,506.424866 6.103994,505.150452 
	C6.177109,500.382324 6.664511,495.620544 6.998867,490.427582 
z"/>
<path fill="#EBEBEB" opacity="1.000000" stroke="none" 
	d="
M273.287231,1250.292236 
	C276.276184,1249.259155 279.552338,1248.518433 283.315125,1247.389648 
	C284.867615,1247.002808 285.933472,1247.003784 286.999359,1247.004883 
	C286.999451,1247.449341 286.999512,1247.893677 286.999451,1248.671387 
	C282.524353,1249.531372 278.049408,1250.057983 273.287231,1250.292236 
z"/>
<path fill="#EBEBEB" opacity="1.000000" stroke="none" 
	d="
M7.601206,512.088867 
	C7.997403,517.020630 7.998328,522.044678 7.997780,527.535889 
	C7.443663,527.692688 6.400453,527.363647 6.411377,527.074463 
	C6.599004,522.107056 6.916749,517.144653 7.601206,512.088867 
z"/>
<path fill="#EBEBEB" opacity="1.000000" stroke="none" 
	d="
M70.033920,1178.344360 
	C72.997414,1181.089844 75.994858,1184.179688 78.996307,1187.634766 
	C76.022827,1184.896240 73.045349,1181.792480 70.033920,1178.344360 
z"/>
<path fill="#EBEBEB" opacity="1.000000" stroke="none" 
	d="
M1157.367798,1203.995850 
	C1159.767944,1201.690430 1162.535767,1199.380859 1165.651855,1197.035645 
	C1163.245117,1199.330566 1160.490356,1201.661133 1157.367798,1203.995850 
z"/>
<path fill="#EBEBEB" opacity="1.000000" stroke="none" 
	d="
M79.140121,1188.318848 
	C80.641617,1189.097168 82.282921,1190.194214 83.961342,1191.645752 
	C82.425621,1190.879272 80.852783,1189.758423 79.140121,1188.318848 
z"/>
<path fill="#E8E7E7" opacity="1.000000" stroke="none" 
	d="
M896.332947,1249.004761 
	C895.999634,1248.560425 895.999268,1248.115967 896.346130,1247.301758 
	C898.128845,1246.954712 899.564453,1246.977295 901.000000,1246.999878 
	C900.122864,1247.500122 899.245728,1248.000244 898.183105,1248.752686 
	C897.553772,1249.004761 897.109802,1249.004639 896.332947,1249.004761 
z"/>
<path fill="#EBEBEB" opacity="1.000000" stroke="none" 
	d="
M88.031296,1195.347534 
	C89.307808,1196.107666 90.619743,1197.210571 91.965851,1198.656738 
	C90.688919,1197.896729 89.377815,1196.793457 88.031296,1195.347534 
z"/>
<path fill="#EBEBEB" opacity="1.000000" stroke="none" 
	d="
M392.183838,1249.253540 
	C392.877899,1248.837891 393.755920,1248.670898 394.817139,1248.754395 
	C394.122772,1249.170654 393.245300,1249.336426 392.183838,1249.253540 
z"/>
<path fill="#EBEBEB" opacity="1.000000" stroke="none" 
	d="
M20.697174,165.034698 
	C20.827276,165.561081 20.664543,166.117371 20.261097,166.846436 
	C20.148371,166.367691 20.276354,165.716156 20.697174,165.034698 
z"/>
<path fill="#E8E7E7" opacity="1.000000" stroke="none" 
	d="
M1244.985352,441.005981 
	C1244.983765,374.866150 1245.065063,308.726074 1244.893311,242.586670 
	C1244.866699,232.340302 1243.680542,222.096924 1243.408325,211.479889 
	C1244.523926,212.684692 1245.256348,214.264404 1246.001587,215.838028 
	C1246.660156,217.229065 1247.333252,218.613358 1248.000000,220.000610 
	C1248.000000,220.444916 1248.000000,220.889236 1247.731201,221.897034 
	C1247.643066,223.973907 1247.823975,225.487259 1248.004883,227.000610 
	C1248.004761,227.444778 1248.004639,227.888962 1247.778076,228.811630 
	C1247.702759,229.860291 1247.853760,230.430466 1248.004883,231.000610 
	C1248.004761,231.444168 1248.004639,231.887741 1248.002686,233.132553 
	C1248.333984,239.955872 1248.666992,245.977936 1249.000000,252.000000 
	C1249.000000,252.444443 1249.000000,252.888901 1248.710815,253.946899 
	C1248.614380,257.706970 1248.807129,260.853485 1249.000000,264.000000 
	C1249.000000,265.388885 1249.000000,266.777802 1248.703857,268.878113 
	C1248.271729,277.678711 1248.063477,285.767792 1248.050293,293.857208 
	C1248.046997,295.904297 1248.666626,297.952393 1249.000000,300.000000 
	C1249.000000,301.388580 1249.000000,302.777130 1248.626709,304.658203 
	C1248.502197,308.767090 1248.751221,312.383545 1249.000000,316.000000 
	C1249.000000,318.041656 1249.000000,320.083344 1248.703857,322.857208 
	C1248.271729,329.687714 1248.007935,335.786987 1248.053955,341.883911 
	C1248.076904,344.924805 1248.666748,347.961426 1249.000000,351.000000 
	C1249.000000,351.444183 1249.000000,351.888336 1248.666138,352.716003 
	C1248.554810,354.066742 1248.777466,355.033997 1249.000000,356.001221 
	C1249.000000,358.700867 1249.000000,361.400482 1248.731201,364.780243 
	C1248.641724,366.973572 1248.820801,368.486786 1249.000000,370.000000 
	C1249.000000,371.066681 1249.000000,372.133331 1248.706299,373.889954 
	C1248.608276,378.719910 1248.804199,382.859955 1249.000000,387.000000 
	C1249.000000,387.444458 1249.000000,387.888885 1248.774536,388.812256 
	C1248.699341,389.860779 1248.849731,390.430389 1249.000000,391.000000 
	C1249.000000,394.030609 1249.000000,397.061188 1248.774414,400.691467 
	C1248.699219,401.860779 1248.849609,402.430389 1249.000000,403.000000 
	C1249.000000,404.066681 1249.000000,405.133331 1248.774414,406.745667 
	C1248.699341,407.860870 1248.849609,408.430450 1249.000000,409.000000 
	C1249.000000,410.066681 1249.000000,411.133331 1248.739136,412.810425 
	C1248.652222,414.613922 1248.826172,415.806946 1249.000000,417.000000 
	C1249.000000,422.354584 1249.000000,427.709137 1248.624268,433.610107 
	C1247.831299,435.401520 1247.522827,436.697937 1246.965698,437.876709 
	C1246.442139,438.984375 1245.656006,439.967865 1244.985352,441.005981 
z"/>
<path fill="#E8E7E7" opacity="1.000000" stroke="none" 
	d="
M1244.985352,619.006165 
	C1244.983887,561.981262 1244.982422,504.956360 1245.381104,447.554565 
	C1246.187622,448.826172 1246.921997,450.470154 1246.944946,452.123962 
	C1247.063232,460.704498 1246.946045,469.288147 1247.045410,477.869202 
	C1247.065308,479.582977 1247.669922,481.290009 1248.004883,483.000183 
	C1248.004761,484.066742 1248.004639,485.133301 1247.707397,486.893860 
	C1247.286011,496.048126 1246.940063,504.513397 1247.133911,512.966370 
	C1247.226074,516.989746 1248.345703,520.989502 1249.000000,525.000000 
	C1249.000000,526.714355 1249.000000,528.428711 1248.666016,530.621460 
	C1248.554810,532.066589 1248.777466,533.033264 1249.000000,534.000000 
	C1249.000000,534.750000 1249.000000,535.500000 1248.603760,536.716309 
	C1247.805786,538.175842 1247.060059,539.167053 1247.054443,540.162415 
	C1246.977173,554.055481 1246.979614,567.949280 1247.044067,581.842468 
	C1247.048950,582.896484 1247.670166,583.947571 1248.004883,585.000000 
	C1248.004761,585.444458 1248.004639,585.888916 1247.749268,586.865479 
	C1247.995972,588.265137 1248.497925,589.132568 1249.000000,590.000000 
	C1249.000000,591.388916 1249.000000,592.777771 1248.707397,594.871094 
	C1248.609863,599.383728 1248.804932,603.191833 1249.000000,607.000000 
	C1249.000000,608.714355 1249.000000,610.428711 1248.632812,612.645386 
	C1247.172241,615.100586 1246.078857,617.053406 1244.985352,619.006165 
z"/>
<path fill="#EBEBEB" opacity="1.000000" stroke="none" 
	d="
M1247.395508,1036.914551 
	C1247.336914,1002.315002 1247.668823,967.625061 1248.002808,932.466187 
	C1248.662476,932.941895 1249.891113,933.884338 1249.894653,934.831421 
	C1250.003296,964.218445 1250.087646,993.606445 1249.900024,1022.992615 
	C1249.870605,1027.607544 1248.523926,1032.213989 1247.395508,1036.914551 
z"/>
<path fill="#EBEBEB" opacity="1.000000" stroke="none" 
	d="
M1248.005981,219.619080 
	C1247.333252,218.613358 1246.660156,217.229065 1246.001587,215.838028 
	C1245.256348,214.264404 1244.523926,212.684692 1243.405151,211.057281 
	C1243.018188,210.253464 1243.012085,209.499969 1243.356934,208.309784 
	C1245.662964,206.188522 1245.760986,204.838989 1243.009766,204.003540 
	C1241.726440,196.983765 1240.721802,189.898483 1239.090088,182.960693 
	C1237.020752,174.162476 1234.441895,165.484100 1232.041504,156.377014 
	C1233.941284,159.623047 1236.625732,163.042221 1237.686035,166.906982 
	C1240.985352,178.932999 1243.892334,191.080399 1246.485962,203.279739 
	C1247.589966,208.472427 1247.538452,213.910812 1248.005981,219.619080 
z"/>
<path fill="#EBEBEB" opacity="1.000000" stroke="none" 
	d="
M1248.300171,482.704803 
	C1247.669922,481.290009 1247.065308,479.582977 1247.045410,477.869202 
	C1246.946045,469.288147 1247.063232,460.704498 1246.944946,452.123962 
	C1246.921997,450.470154 1246.187622,448.826172 1245.383301,447.085480 
	C1244.983887,445.282501 1244.982544,443.571655 1244.983154,441.433411 
	C1245.656006,439.967865 1246.442139,438.984375 1246.965698,437.876709 
	C1247.522827,436.697937 1247.831299,435.401520 1248.624268,434.077637 
	C1248.865234,450.135651 1248.730347,466.272552 1248.300171,482.704803 
z"/>
<path fill="#EBEBEB" opacity="1.000000" stroke="none" 
	d="
M1248.300049,584.704712 
	C1247.670166,583.947571 1247.048950,582.896484 1247.044067,581.842468 
	C1246.979614,567.949280 1246.977173,554.055481 1247.054443,540.162415 
	C1247.060059,539.167053 1247.805786,538.175842 1248.603760,537.091309 
	C1248.865112,552.803162 1248.730225,568.606262 1248.300049,584.704712 
z"/>
<path fill="#EBEBEB" opacity="1.000000" stroke="none" 
	d="
M1244.983154,619.379761 
	C1246.078857,617.053406 1247.172241,615.100586 1248.632812,613.073853 
	C1249.000000,627.354248 1249.000000,641.708435 1249.000000,656.531372 
	C1248.333374,655.544128 1247.121826,654.100159 1247.089844,652.630493 
	C1246.905640,644.146912 1247.064453,635.656372 1246.944946,627.170471 
	C1246.921387,625.501221 1246.187866,623.841980 1245.383789,622.086487 
	C1244.984253,621.247620 1244.982666,620.500488 1244.983154,619.379761 
z"/>
<path fill="#EBEBEB" opacity="1.000000" stroke="none" 
	d="
M1249.291382,524.715698 
	C1248.345703,520.989502 1247.226074,516.989746 1247.133911,512.966370 
	C1246.940063,504.513397 1247.286011,496.048126 1247.707520,487.293823 
	C1248.222412,487.246979 1248.623901,487.489136 1248.630859,487.742188 
	C1248.969604,499.971375 1249.274292,512.201416 1249.291382,524.715698 
z"/>
<path fill="#EBEBEB" opacity="1.000000" stroke="none" 
	d="
M1249.296265,897.705322 
	C1248.666748,896.445312 1248.098145,894.899658 1248.038330,893.334595 
	C1247.653320,883.260681 1247.357300,873.183105 1247.123291,863.104553 
	C1247.108398,862.461731 1247.858887,861.801208 1248.626709,861.074463 
	C1249.197388,873.136902 1249.394897,885.273804 1249.296265,897.705322 
z"/>
<path fill="#EBEBEB" opacity="1.000000" stroke="none" 
	d="
M1249.000000,790.531311 
	C1248.335571,790.043701 1247.105469,789.094543 1247.093262,788.130127 
	C1246.960083,777.483154 1246.994873,766.833435 1247.071899,756.185181 
	C1247.076660,755.515015 1247.812012,754.850098 1248.603760,754.091309 
	C1249.000000,766.020874 1249.000000,778.041809 1249.000000,790.531311 
z"/>
<path fill="#EBEBEB" opacity="1.000000" stroke="none" 
	d="
M1249.296143,299.705322 
	C1248.666626,297.952393 1248.046997,295.904297 1248.050293,293.857208 
	C1248.063477,285.767792 1248.271729,277.678711 1248.703857,269.294739 
	C1249.333374,271.047638 1249.953003,273.095734 1249.949707,275.142822 
	C1249.936890,283.232269 1249.728394,291.321381 1249.296143,299.705322 
z"/>
<path fill="#EBEBEB" opacity="1.000000" stroke="none" 
	d="
M1249.296265,350.705292 
	C1248.666748,347.961426 1248.076904,344.924805 1248.053955,341.883911 
	C1248.007935,335.786987 1248.271729,329.687714 1248.703735,323.294708 
	C1249.333252,326.038605 1249.922974,329.075226 1249.945923,332.116150 
	C1249.992188,338.213043 1249.728394,344.312317 1249.296265,350.705292 
z"/>
<path fill="#EBEBEB" opacity="1.000000" stroke="none" 
	d="
M1243.370605,1062.939453 
	C1244.145386,1055.853149 1245.285889,1048.701416 1246.715576,1041.274902 
	C1247.336792,1042.752319 1248.232422,1044.621338 1247.898438,1046.235962 
	C1246.741943,1051.829590 1245.157959,1057.335083 1243.370605,1062.939453 
z"/>
<path fill="#EBEBEB" opacity="1.000000" stroke="none" 
	d="
M1249.296143,251.705505 
	C1248.666992,245.977936 1248.333984,239.955872 1248.002930,233.465240 
	C1248.663940,233.767120 1249.885376,234.533188 1249.891479,235.308746 
	C1249.933350,240.675049 1249.722046,246.043365 1249.296143,251.705505 
z"/>
<path fill="#EBEBEB" opacity="1.000000" stroke="none" 
	d="
M1249.000000,691.531738 
	C1248.541748,691.820801 1247.679932,691.633301 1247.683472,691.463501 
	C1247.808105,685.368835 1248.013428,679.275879 1248.603760,673.091309 
	C1249.000000,679.021179 1249.000000,685.042297 1249.000000,691.531738 
z"/>
<path fill="#EBEBEB" opacity="1.000000" stroke="none" 
	d="
M1249.293701,838.710083 
	C1248.804199,834.859985 1248.608276,830.719971 1248.706299,826.289978 
	C1249.195801,830.140076 1249.391602,834.280090 1249.293701,838.710083 
z"/>
<path fill="#EBEBEB" opacity="1.000000" stroke="none" 
	d="
M1249.293823,386.710083 
	C1248.804199,382.859955 1248.608276,378.719910 1248.706299,374.289917 
	C1249.195923,378.140076 1249.391846,382.280121 1249.293823,386.710083 
z"/>
<path fill="#EBEBEB" opacity="1.000000" stroke="none" 
	d="
M1249.284180,606.730713 
	C1248.804932,603.191833 1248.609863,599.383728 1248.707275,595.287781 
	C1249.189331,598.820435 1249.378906,602.640930 1249.284180,606.730713 
z"/>
<path fill="#EBEBEB" opacity="1.000000" stroke="none" 
	d="
M1249.283203,315.738892 
	C1248.751221,312.383545 1248.502197,308.767090 1248.626709,305.074738 
	C1249.188721,308.491821 1249.377441,311.984802 1249.283203,315.738892 
z"/>
<path fill="#EBEBEB" opacity="1.000000" stroke="none" 
	d="
M1249.271973,263.761841 
	C1248.807129,260.853485 1248.614380,257.706970 1248.710815,254.280212 
	C1249.181396,257.174561 1249.362793,260.349091 1249.271973,263.761841 
z"/>
<path fill="#EBEBEB" opacity="1.000000" stroke="none" 
	d="
M1249.259155,911.760132 
	C1246.577637,909.236450 1245.952637,906.320435 1248.625000,903.078308 
	C1249.172852,905.840088 1249.345581,908.680115 1249.259155,911.760132 
z"/>
<path fill="#EBEBEB" opacity="1.000000" stroke="none" 
	d="
M1249.000000,818.581665 
	C1245.448853,817.570374 1247.289185,814.842896 1247.722778,812.260986 
	C1248.336548,814.054443 1248.668335,816.108887 1249.000000,818.581665 
z"/>
<path fill="#EBEBEB" opacity="1.000000" stroke="none" 
	d="
M1249.279541,717.742554 
	C1248.813599,715.838257 1248.627319,713.676514 1248.720459,711.257385 
	C1249.186279,713.161682 1249.372681,715.323425 1249.279541,717.742554 
z"/>
<path fill="#EBEBEB" opacity="1.000000" stroke="none" 
	d="
M1249.270996,666.767761 
	C1248.767090,664.706116 1248.534302,662.412292 1248.650635,660.059204 
	C1249.180786,662.178528 1249.361450,664.356995 1249.270996,666.767761 
z"/>
<path fill="#EBEBEB" opacity="1.000000" stroke="none" 
	d="
M1249.274658,858.754272 
	C1248.816895,857.163757 1248.633789,855.327576 1248.725342,853.245667 
	C1249.183105,854.836182 1249.366333,856.672424 1249.274658,858.754272 
z"/>
<path fill="#EBEBEB" opacity="1.000000" stroke="none" 
	d="
M1249.262207,803.789307 
	C1248.776978,802.367371 1248.553955,800.734802 1248.665527,799.051147 
	C1249.174805,800.526184 1249.349487,802.052368 1249.262207,803.789307 
z"/>
<path fill="#EBEBEB" opacity="1.000000" stroke="none" 
	d="
M1248.272705,226.769653 
	C1247.823975,225.487259 1247.643066,223.973907 1247.731079,222.230286 
	C1248.180054,223.512909 1248.360229,225.025803 1248.272705,226.769653 
z"/>
<path fill="#EBEBEB" opacity="1.000000" stroke="none" 
	d="
M1249.268799,369.769836 
	C1248.820801,368.486786 1248.641724,366.973572 1248.731201,365.230164 
	C1249.179199,366.513214 1249.358276,368.026459 1249.268799,369.769836 
z"/>
<path fill="#EBEBEB" opacity="1.000000" stroke="none" 
	d="
M1248.358643,725.938965 
	C1248.150879,724.502930 1248.296753,723.001038 1248.721436,721.249512 
	C1248.904175,722.624329 1248.808350,724.248718 1248.358643,725.938965 
z"/>
<path fill="#EBEBEB" opacity="1.000000" stroke="none" 
	d="
M1249.271484,737.762085 
	C1248.666992,736.590576 1248.333984,735.181152 1248.002930,733.384033 
	C1248.517578,734.505676 1249.030273,736.014954 1249.271484,737.762085 
z"/>
<path fill="#EBEBEB" opacity="1.000000" stroke="none" 
	d="
M1249.264648,703.778320 
	C1248.667114,702.909851 1248.334229,701.819641 1248.003174,700.363281 
	C1248.513062,701.183533 1249.021240,702.370056 1249.264648,703.778320 
z"/>
<path fill="#EBEBEB" opacity="1.000000" stroke="none" 
	d="
M1249.260986,416.789581 
	C1248.826172,415.806946 1248.652222,414.613922 1248.739136,413.210449 
	C1249.174072,414.193054 1249.348022,415.386139 1249.260986,416.789581 
z"/>
<path fill="#EBEBEB" opacity="1.000000" stroke="none" 
	d="
M1249.260986,925.789612 
	C1248.826172,924.807007 1248.652222,923.614014 1248.739136,922.210510 
	C1249.173950,923.193054 1249.348022,924.386169 1249.260986,925.789612 
z"/>
<path fill="#EBEBEB" opacity="1.000000" stroke="none" 
	d="
M1249.000000,533.625000 
	C1248.777466,533.033264 1248.554810,532.066589 1248.666016,531.049927 
	C1249.000000,531.750000 1249.000000,532.500000 1249.000000,533.625000 
z"/>
<path fill="#EBEBEB" opacity="1.000000" stroke="none" 
	d="
M1249.000000,355.625916 
	C1248.777466,355.033997 1248.554810,354.066742 1248.666138,353.049133 
	C1249.000000,353.749390 1249.000000,354.500000 1249.000000,355.625916 
z"/>
<path fill="#EBEBEB" opacity="1.000000" stroke="none" 
	d="
M1249.000000,749.625000 
	C1248.777344,749.033264 1248.554688,748.066467 1248.666016,747.049866 
	C1249.000000,747.750000 1249.000000,748.500000 1249.000000,749.625000 
z"/>
<path fill="#EBEBEB" opacity="1.000000" stroke="none" 
	d="
M1248.998535,589.662109 
	C1248.497925,589.132568 1247.995972,588.265137 1247.749512,587.198853 
	C1248.335571,587.774780 1248.666260,588.549561 1248.998535,589.662109 
z"/>
<path fill="#EBEBEB" opacity="1.000000" stroke="none" 
	d="
M1249.225586,916.854492 
	C1248.849609,916.430420 1248.699341,915.860779 1248.774536,915.145630 
	C1249.150391,915.569641 1249.300781,916.139282 1249.225586,916.854492 
z"/>
<path fill="#EBEBEB" opacity="1.000000" stroke="none" 
	d="
M1248.302856,697.963135 
	C1248.003784,697.556946 1248.002563,697.111389 1248.003174,696.331726 
	C1248.521362,696.232117 1249.037842,696.466675 1249.554321,696.701233 
	C1249.236450,697.108765 1248.918579,697.516296 1248.302856,697.963135 
z"/>
<path fill="#EBEBEB" opacity="1.000000" stroke="none" 
	d="
M1249.225586,844.854492 
	C1248.849731,844.430359 1248.699341,843.860779 1248.774658,843.145569 
	C1249.150391,843.569641 1249.300781,844.139282 1249.225586,844.854492 
z"/>
<path fill="#EBEBEB" opacity="1.000000" stroke="none" 
	d="
M1248.229492,230.854538 
	C1247.853760,230.430466 1247.702759,229.860291 1247.778320,229.144760 
	C1248.154663,229.569077 1248.304565,230.138763 1248.229492,230.854538 
z"/>
<path fill="#EBEBEB" opacity="1.000000" stroke="none" 
	d="
M1249.225464,408.854431 
	C1248.849609,408.430450 1248.699341,407.860870 1248.774414,407.145630 
	C1249.150391,407.569611 1249.300659,408.139252 1249.225464,408.854431 
z"/>
<path fill="#EBEBEB" opacity="1.000000" stroke="none" 
	d="
M1249.225586,402.854431 
	C1248.849609,402.430389 1248.699219,401.860779 1248.774414,401.145569 
	C1249.150391,401.569611 1249.300781,402.139221 1249.225586,402.854431 
z"/>
<path fill="#EBEBEB" opacity="1.000000" stroke="none" 
	d="
M1249.225464,390.854431 
	C1248.849731,390.430389 1248.699341,389.860779 1248.774414,389.145599 
	C1249.150269,389.569641 1249.300659,390.139282 1249.225464,390.854431 
z"/>
<path fill="#EBEBEB" opacity="1.000000" stroke="none" 
	d="
M1249.000000,794.666870 
	C1248.482300,794.766479 1247.964722,794.532837 1247.447021,794.299072 
	C1247.765625,793.891663 1248.084351,793.484253 1248.701538,793.038391 
	C1249.000000,793.444519 1249.000000,793.888977 1249.000000,794.666870 
z"/>
<path fill="#0032FC" opacity="1.000000" stroke="none" 
	d="
M926.291748,210.685303 
	C978.922791,223.887802 1012.167969,256.401672 1025.305298,308.616211 
	C1028.073608,319.619110 1028.774170,331.384552 1028.790527,342.800964 
	C1029.009277,496.124695 1029.155640,649.449280 1028.808594,802.772522 
	C1028.700928,850.373474 1011.569580,892.514832 983.771057,930.607666 
	C959.622314,963.698975 927.970215,987.972229 892.650146,1007.942993 
	C863.518494,1024.414673 834.472778,1041.037964 805.383606,1057.584839 
	C804.115784,1058.306030 802.794617,1058.933472 800.840820,1059.944824 
	C800.840820,1018.230103 800.840820,977.171448 800.840820,935.314270 
	C797.765686,935.314270 795.174194,935.314453 792.582764,935.314148 
	C647.258728,935.300415 501.934174,935.502502 356.611023,935.137817 
	C314.412445,935.031921 279.103607,918.835449 252.783539,885.162537 
	C235.346878,862.854614 227.367722,836.969788 227.174484,808.955261 
	C226.766403,749.795105 226.963776,690.630554 226.955002,631.467834 
	C226.940796,535.640442 226.992249,439.813019 226.947510,343.985626 
	C226.933365,313.710602 233.974258,285.572571 252.161743,260.926819 
	C275.662689,229.080856 307.407166,210.771851 346.749329,208.213058 
	C376.962219,206.248032 407.366852,206.969574 437.686462,206.950851 
	C586.510437,206.858948 735.334778,206.822220 884.158386,207.084671 
	C898.069580,207.109192 911.976746,209.364517 926.291748,210.685303 
M556.500000,561.010620 
	C522.399170,561.010620 488.298279,561.010620 454.213989,561.010620 
	C452.812164,610.773193 480.496307,678.887390 547.392456,715.827209 
	C603.936646,747.050598 680.584961,741.092285 732.514099,699.985107 
	C777.104614,664.687317 799.954956,618.267944 802.477112,561.016846 
	C720.056580,561.016846 638.778320,561.016846 556.500000,561.010620 
z"/>
<path fill="#E2E2E2" opacity="1.000000" stroke="none" 
	d="
M901.399780,1247.000000 
	C899.564453,1246.977295 898.128845,1246.954712 896.345459,1246.968506 
	C895.248596,1247.003296 894.499573,1247.001709 892.959106,1247.000000 
	C890.777588,1247.001465 889.387573,1247.002930 887.997559,1247.004395 
	C887.553650,1247.003784 887.109741,1247.003174 886.332886,1247.003906 
	C884.648071,1246.951538 883.296570,1246.875488 881.944153,1246.848267 
	C871.015625,1246.628296 860.087463,1246.315430 849.157898,1246.252686 
	C844.552490,1246.226196 839.944824,1246.942383 835.336731,1246.961792 
	C815.389832,1247.045776 795.441467,1247.122192 775.495667,1246.955688 
	C760.324097,1246.828979 745.155945,1246.314453 729.985291,1246.023804 
	C728.183594,1245.989136 726.375732,1246.279419 724.285400,1246.711914 
	C722.286255,1247.003174 720.572510,1247.001587 718.430603,1247.000000 
	C678.645203,1247.000122 639.288025,1247.000244 599.464172,1247.002686 
	C598.554138,1247.004272 598.110779,1247.003662 596.868835,1247.001709 
	C571.046387,1247.000244 546.022522,1247.000122 520.998596,1247.000000 
	C520.554443,1247.000488 520.110352,1247.000977 519.058960,1246.715576 
	C515.300720,1246.621338 512.149780,1246.812988 508.998779,1247.004517 
	C508.249390,1247.003662 507.500000,1247.002808 505.930878,1247.001221 
	C483.740356,1247.000244 462.369568,1247.000122 440.998779,1247.000000 
	C440.249359,1247.000610 439.499969,1247.001099 438.375885,1247.003174 
	C407.129761,1246.669922 376.258636,1246.300659 345.386719,1246.017456 
	C333.653992,1245.909790 321.919189,1245.949341 310.185883,1246.018066 
	C302.643402,1246.062256 295.101898,1246.281860 287.279663,1246.713867 
	C285.933472,1247.003784 284.867615,1247.002808 283.402100,1247.003296 
	C263.299713,1247.003418 243.597015,1247.001953 223.445923,1247.002686 
	C221.931641,1247.003296 220.865723,1247.001709 219.400070,1247.000000 
	C214.989563,1246.346313 210.976654,1245.705444 206.968658,1245.035156 
	C203.067322,1244.382935 199.158737,1243.764404 195.275116,1243.017822 
	C188.641113,1241.742554 181.817017,1241.007812 175.446564,1238.910522 
	C164.792725,1235.402954 154.233963,1231.448853 143.990540,1226.885010 
	C121.873047,1217.030640 102.484718,1202.908691 84.501617,1186.870850 
	C78.620865,1181.626099 73.360573,1175.661621 68.062187,1169.803955 
	C66.593254,1168.179932 66.005989,1165.758423 65.015854,1163.321777 
	C71.524704,1169.317139 77.952400,1175.776978 84.553841,1182.054321 
	C105.420692,1201.896240 129.462311,1216.648071 156.310730,1227.014893 
	C172.497177,1233.264893 189.212616,1237.346191 206.313843,1239.757324 
	C215.482681,1241.050171 224.801392,1241.893433 234.052902,1241.897339 
	C496.352753,1242.008789 758.652893,1242.165527 1020.952332,1241.823608 
	C1068.355591,1241.761841 1112.010742,1227.621216 1150.384033,1199.479004 
	C1163.305786,1190.002441 1174.437744,1178.085449 1186.682983,1167.132812 
	C1187.185059,1167.538818 1187.735840,1168.390015 1187.547974,1168.609741 
	C1182.977783,1173.956665 1180.099976,1180.802490 1173.478271,1184.360718 
	C1172.062134,1185.121826 1171.003296,1186.557617 1169.800293,1187.703979 
	C1165.146973,1192.137939 1160.489624,1196.567871 1155.867065,1201.033569 
	C1155.179321,1201.697998 1154.668823,1202.545776 1154.038208,1203.654297 
	C1153.035522,1204.184692 1151.739136,1204.031616 1151.156006,1204.604370 
	C1141.872314,1213.723022 1129.170898,1216.722046 1118.447266,1223.118408 
	C1102.182983,1232.819824 1084.191650,1237.129517 1066.430176,1242.028564 
	C1056.512695,1244.763916 1045.858887,1245.635254 1035.506592,1245.843262 
	C998.900879,1246.579468 962.282227,1246.675415 925.668274,1246.991821 
	C919.081848,1247.048706 912.494507,1247.000244 905.452576,1247.002686 
	C903.931580,1247.003174 902.865540,1247.001587 901.399780,1247.000000 
z"/>
<path fill="#E2E2E2" opacity="1.000000" stroke="none" 
	d="
M57.872131,1153.683838 
	C52.674599,1152.924805 47.312923,1145.992676 47.009121,1139.358521 
	C50.587822,1143.757568 54.161564,1148.565063 57.872131,1153.683838 
z"/>
<path fill="#E8E7E7" opacity="1.000000" stroke="none" 
	d="
M10.986864,685.566223 
	C7.913219,684.399414 8.335812,682.369324 10.615294,680.079651 
	C10.984400,681.717224 10.988939,683.428040 10.986864,685.566223 
z"/>
<path fill="#E8E7E7" opacity="1.000000" stroke="none" 
	d="
M1243.006592,204.402542 
	C1245.760986,204.838989 1245.662964,206.188522 1243.364014,207.933197 
	C1243.014526,206.929413 1243.008911,205.865479 1243.006592,204.402542 
z"/>
<path fill="#E2E2E2" opacity="1.000000" stroke="none" 
	d="
M64.020287,1161.664551 
	C63.383320,1161.224854 62.697903,1160.467896 62.006920,1159.353027 
	C62.658184,1159.779175 63.315010,1160.563232 64.020287,1161.664551 
z"/>
<path fill="#E2E2E2" opacity="1.000000" stroke="none" 
	d="
M60.014378,1156.666504 
	C59.378483,1156.224731 58.695549,1155.465576 58.008190,1154.348389 
	C58.658291,1154.776489 59.312813,1155.562744 60.014378,1156.666504 
z"/>
<path fill="#E8E7E7" opacity="1.000000" stroke="none" 
	d="
M521.077393,1247.376221 
	C546.022522,1247.000122 571.046387,1247.000244 596.536255,1247.002686 
	C595.548157,1247.669800 594.085815,1248.920532 592.641357,1248.900146 
	C585.785950,1248.803589 578.933167,1248.058350 572.083496,1248.106567 
	C559.667114,1248.193970 547.254028,1248.703125 534.838440,1248.986206 
	C531.099487,1249.071533 527.354248,1249.064697 523.617859,1248.931641 
	C522.784363,1248.901855 521.976135,1248.164062 521.077393,1247.376221 
z"/>
<path fill="#E8E7E7" opacity="1.000000" stroke="none" 
	d="
M441.062378,1247.353638 
	C462.369568,1247.000122 483.740356,1247.000244 505.556152,1247.002686 
	C504.376740,1247.669800 502.744781,1248.926880 501.129059,1248.906372 
	C488.018982,1248.739502 474.913330,1248.201904 461.803253,1248.059204 
	C455.886566,1247.994995 449.964569,1248.629028 444.040741,1248.799805 
	C443.080475,1248.827515 442.098145,1248.090698 441.062378,1247.353638 
z"/>
<path fill="#E8E7E7" opacity="1.000000" stroke="none" 
	d="
M509.067322,1247.364258 
	C512.149780,1246.812988 515.300720,1246.621338 518.725830,1246.717285 
	C515.898254,1249.800293 512.531128,1248.955811 509.067322,1247.364258 
z"/>
<path fill="#E8E7E7" opacity="1.000000" stroke="none" 
	d="
M888.066284,1247.364014 
	C889.387573,1247.002930 890.777588,1247.001465 892.584595,1247.000000 
	C891.801880,1250.083496 890.051575,1249.462891 888.066284,1247.364014 
z"/>
<path fill="#FDFDFE" opacity="1.000000" stroke="none" 
	d="
M557.000000,561.013733 
	C638.778320,561.016846 720.056580,561.016846 802.477112,561.016846 
	C799.954956,618.267944 777.104614,664.687317 732.514099,699.985107 
	C680.584961,741.092285 603.936646,747.050598 547.392456,715.827209 
	C480.496307,678.887390 452.812164,610.773193 454.213989,561.010620 
	C488.298279,561.010620 522.399170,561.010620 557.000000,561.013733 
z"/>
</svg>